<svg width="140" height="40" viewBox="0 0 140 40" fill="none" xmlns="http://www.w3.org/2000/svg">
<g opacity="0.3">
<g clip-path="url(#clip0_3031_5317)">
<path d="M35.9805 26.2116V12.4257H39.6838L43.3871 20.9927H43.8744L47.5778 12.4257H51.1836V26.2116H48.9421V16.5615L49.137 14.6905H48.9421L45.3363 23.0606H41.8278L38.222 14.6905H38.027L38.222 16.5615V26.2116H35.9805ZM53.716 22.1743V16.1676H55.7626V21.9774C55.7626 22.857 55.9509 23.507 56.3278 23.9271C56.7176 24.3341 57.309 24.5376 58.1015 24.5376C58.8941 24.5376 59.5439 24.2685 60.0506 23.7302C60.5703 23.1787 60.8303 22.4632 60.8303 21.5835V16.1676H62.8769V26.2116H60.8303V24.833H60.7328C60.5769 25.0956 60.3364 25.3582 60.0117 25.6208C59.31 26.146 58.5108 26.4086 57.6142 26.4086C56.3797 26.4086 55.4183 26.0475 54.7295 25.3254C54.0539 24.6033 53.716 23.5529 53.716 22.1743ZM65.2128 26.2116V12.4257H67.2594V24.3407H69.5009V26.2116H65.2128ZM70.0862 18.0385V16.1676H71.2557V14.0012H73.3023V16.1676H76.3234V18.0385H73.3023V24.3407H76.4209V26.2116H71.2557V18.0385H70.0862ZM78.331 14.336C78.0971 14.0997 77.9802 13.8109 77.9802 13.4695C77.9802 13.1281 78.0971 12.8393 78.331 12.6029C78.5649 12.3535 78.851 12.2288 79.1886 12.2288C79.5266 12.2288 79.8123 12.3535 80.0462 12.6029C80.2933 12.8393 80.4166 13.1281 80.4166 13.4695C80.4166 13.8109 80.2933 14.0997 80.0462 14.336C79.8123 14.5724 79.5266 14.6905 79.1886 14.6905C78.851 14.6905 78.5649 14.5724 78.331 14.336ZM78.1751 26.2116V16.1676H80.2217V26.2116H78.1751Z" fill="white"/>
<path d="M82.748 26.212V12.426H84.9895V18.1373H87.231L91.3242 12.426H93.9555L89.1802 19.0236L94.1504 26.212H91.4216L87.3285 20.3037H84.9895V26.212H82.748ZM95.5709 24.9712C94.6875 23.9996 94.2455 22.7392 94.2455 21.1899C94.2455 19.6407 94.6875 18.3868 95.5709 17.4284C96.4675 16.4568 97.5851 15.971 98.9234 15.971C99.7681 15.971 100.541 16.2204 101.243 16.7194C101.542 16.9294 101.808 17.1723 102.042 17.448H102.139V16.1679H104.186V26.212H102.139V24.8334H102.042C101.847 25.1091 101.581 25.3717 101.243 25.6211C100.541 26.1463 99.7681 26.4089 98.9234 26.4089C97.5851 26.4089 96.4675 25.9297 95.5709 24.9712ZM97.1692 18.7085C96.6495 19.2862 96.3895 20.1133 96.3895 21.1899C96.3895 22.2665 96.6495 23.0937 97.1692 23.6714C97.6891 24.2491 98.4037 24.538 99.3132 24.538C100.171 24.538 100.853 24.2491 101.36 23.6714C101.88 23.0806 102.139 22.2534 102.139 21.1899C102.139 20.1265 101.88 19.3059 101.36 18.7282C100.853 18.1373 100.171 17.8419 99.3132 17.8419C98.4037 17.8419 97.6891 18.1308 97.1692 18.7085ZM105.835 23.0609H108.077C108.168 23.3235 108.33 23.5729 108.564 23.8093C109.045 24.2951 109.695 24.538 110.513 24.538C111.228 24.538 111.748 24.4264 112.072 24.2032C112.397 23.9799 112.56 23.6977 112.56 23.3563C112.56 23.2381 112.534 23.1331 112.482 23.0412C112.43 22.9362 112.339 22.8443 112.209 22.7655C112.079 22.6867 111.956 22.621 111.839 22.5685C111.722 22.5029 111.546 22.4438 111.312 22.3913C111.078 22.3256 110.89 22.2797 110.747 22.2534C110.604 22.214 110.383 22.1615 110.084 22.0959C109.799 22.0302 109.584 21.9843 109.441 21.958C107.362 21.4854 106.323 20.4744 106.323 18.9251C106.323 18.1373 106.68 17.448 107.395 16.8572C108.109 16.2664 109.051 15.971 110.221 15.971C111.845 15.971 113.06 16.4961 113.866 17.5465C114.229 18.0061 114.476 18.5312 114.606 19.1221H112.462C112.358 18.8595 112.215 18.6494 112.033 18.4918C111.579 18.0586 110.974 17.8419 110.221 17.8419C109.636 17.8419 109.194 17.947 108.895 18.157C108.61 18.3671 108.467 18.6297 108.467 18.9448C108.467 19.063 108.493 19.1746 108.545 19.2796C108.596 19.3715 108.688 19.4569 108.817 19.5356C108.947 19.6144 109.071 19.6801 109.188 19.7326C109.318 19.7851 109.493 19.8442 109.714 19.9098C109.935 19.9623 110.123 20.0083 110.279 20.0477C110.435 20.0739 110.65 20.1199 110.922 20.1855C111.208 20.238 111.429 20.284 111.585 20.3234C113.664 20.7961 114.704 21.807 114.704 23.3563C114.704 24.1966 114.327 24.9187 113.573 25.5227C112.833 26.1135 111.812 26.4089 110.513 26.4089C108.824 26.4089 107.531 25.8509 106.634 24.7349C106.232 24.2228 105.965 23.6648 105.835 23.0609ZM115.771 23.0609H118.013C118.104 23.3235 118.266 23.5729 118.5 23.8093C118.981 24.2951 119.631 24.538 120.449 24.538C121.164 24.538 121.683 24.4264 122.008 24.2032C122.333 23.9799 122.496 23.6977 122.496 23.3563C122.496 23.2381 122.47 23.1331 122.418 23.0412C122.366 22.9362 122.275 22.8443 122.145 22.7655C122.015 22.6867 121.892 22.621 121.775 22.5685C121.658 22.5029 121.482 22.4438 121.248 22.3913C121.014 22.3256 120.826 22.2797 120.683 22.2534C120.54 22.214 120.319 22.1615 120.02 22.0959C119.734 22.0302 119.52 21.9843 119.377 21.958C117.298 21.4854 116.259 20.4744 116.259 18.9251C116.259 18.1373 116.616 17.448 117.331 16.8572C118.045 16.2664 118.987 15.971 120.157 15.971C121.781 15.971 122.996 16.4961 123.802 17.5465C124.165 18.0061 124.412 18.5312 124.542 19.1221H122.398C122.294 18.8595 122.151 18.6494 121.969 18.4918C121.515 18.0586 120.91 17.8419 120.157 17.8419C119.572 17.8419 119.13 17.947 118.831 18.157C118.545 18.3671 118.403 18.6297 118.403 18.9448C118.403 19.063 118.428 19.1746 118.481 19.2796C118.532 19.3715 118.623 19.4569 118.753 19.5356C118.883 19.6144 119.007 19.6801 119.124 19.7326C119.254 19.7851 119.429 19.8442 119.65 19.9098C119.871 19.9623 120.059 20.0083 120.215 20.0477C120.371 20.0739 120.586 20.1199 120.859 20.1855C121.144 20.238 121.365 20.284 121.521 20.3234C123.6 20.7961 124.64 21.807 124.64 23.3563C124.64 24.1966 124.263 24.9187 123.509 25.5227C122.769 26.1135 121.749 26.4089 120.449 26.4089C118.76 26.4089 117.467 25.8509 116.57 24.7349C116.167 24.2228 115.901 23.6648 115.771 23.0609ZM127.13 24.9712C126.246 23.9996 125.804 22.7392 125.804 21.1899C125.804 19.6407 126.246 18.3868 127.13 17.4284C128.026 16.4568 129.144 15.971 130.482 15.971C131.327 15.971 132.1 16.2204 132.802 16.7194C133.101 16.9294 133.367 17.1723 133.601 17.448H133.698V16.1679H135.745V26.212H133.698V24.8334H133.601C133.406 25.1091 133.14 25.3717 132.802 25.6211C132.1 26.1463 131.327 26.4089 130.482 26.4089C129.144 26.4089 128.026 25.9297 127.13 24.9712ZM128.728 18.7085C128.208 19.2862 127.949 20.1133 127.949 21.1899C127.949 22.2665 128.208 23.0937 128.728 23.6714C129.248 24.2491 129.963 24.538 130.872 24.538C131.73 24.538 132.412 24.2491 132.919 23.6714C133.439 23.0806 133.698 22.2534 133.698 21.1899C133.698 20.1265 133.439 19.3059 132.919 18.7282C132.412 18.1373 131.73 17.8419 130.872 17.8419C129.963 17.8419 129.248 18.1308 128.728 18.7085Z" fill="#999999"/>
<path d="M6.8533 17.7754C6.87567 17.7754 6.89798 17.7737 6.92008 17.7701L13.1378 16.7747C13.2075 16.7636 13.2734 16.7351 13.3295 16.6919C13.3856 16.6487 13.4302 16.5921 13.4594 16.5272L16.0596 10.7342C16.0913 10.6634 16.1036 10.5852 16.0949 10.5079C16.0862 10.4306 16.057 10.3571 16.0104 10.2952C15.9637 10.2333 15.9014 10.1854 15.8299 10.1564C15.7585 10.1275 15.6806 10.1186 15.6045 10.1308L9.38677 11.1262C9.31709 11.1374 9.25123 11.1658 9.1951 11.209C9.139 11.2522 9.09435 11.3088 9.0652 11.3738L6.46507 17.1667C6.43562 17.2323 6.42291 17.3044 6.42816 17.3762C6.43337 17.4481 6.45634 17.5174 6.49497 17.578C6.53359 17.6386 6.58663 17.6884 6.64925 17.7228C6.71183 17.7574 6.782 17.7754 6.8533 17.7754ZM9.96728 15.489L11.5335 16.1592L8.45692 16.6517L9.96728 15.489ZM10.2317 14.2023L9.93088 11.9115L14.0677 11.2492L10.2317 14.2023ZM9.4505 14.8037L7.94017 15.9664L9.22674 13.1L9.4505 14.8037ZM12.8545 15.7887L10.7485 14.8876L14.5845 11.9345L12.8545 15.7887Z" fill="#999999"/>
<path d="M29.1959 21.1575C28.941 19.266 28.006 17.2685 26.5631 15.5328C24.6971 13.2882 22.2852 11.8418 20.0775 11.6339C19.9534 11.3313 19.7912 11.0462 19.5948 10.7857L18.0444 8.72957C17.1244 7.50937 15.5418 6.93313 13.588 7.10672C11.706 7.27404 9.68678 8.12272 7.90228 9.4965C6.11778 10.8703 4.77199 12.6121 4.11284 14.4011C3.42855 16.2582 3.55841 17.9529 4.47849 19.1731L5.36974 20.355C5.19236 20.6005 5.045 20.8667 4.93086 21.1479L3.96224 23.5403C3.38738 24.9601 3.69766 26.6308 4.83588 28.2446C5.93231 29.7992 7.67966 31.128 9.75604 31.9863C11.2713 32.6126 12.8351 32.9361 14.2928 32.9361C14.8183 32.9376 15.3431 32.8927 15.8609 32.8019C17.7922 32.4568 19.1724 31.4849 19.7473 30.0651L20.6575 27.8168C20.8196 27.8803 20.9819 27.9384 21.1445 27.991C21.7879 28.2061 22.4602 28.3195 23.1378 28.3273C24.1886 28.3273 25.1162 28.0133 25.8447 27.395L27.8035 25.7325C28.9661 24.7458 29.4605 23.1211 29.1959 21.1575ZM17.0486 24.1706L18.3541 23.0626C18.928 23.713 19.5661 24.3025 20.2585 24.8221L18.9719 25.914C18.2692 25.4061 17.6243 24.8215 17.0486 24.1706ZM16.5004 23.5106C16.3226 23.281 16.1536 23.0464 15.9936 22.8067C15.975 22.7742 15.9555 22.7421 15.9348 22.7107L15.931 22.7132C15.6159 22.2336 15.3365 21.7309 15.0954 21.2093C15.4611 20.9812 15.8196 20.7322 16.171 20.4623C16.2627 20.3917 16.353 20.3202 16.4421 20.2476C16.8239 21.0104 17.2807 21.7324 17.8057 22.4028L16.5004 23.5106ZM15.3058 23.9943C15.2202 24.2058 15.0549 24.3743 14.8464 24.4627C14.6379 24.551 14.4031 24.5521 14.1938 24.4656L12.2206 23.65L12.7481 22.3471C13.2995 22.1521 13.8357 21.9153 14.352 21.6389C14.6173 22.2063 14.9254 22.7522 15.2736 23.2719C15.3305 23.3828 15.3628 23.5048 15.3684 23.6295C15.374 23.7543 15.3526 23.8787 15.3058 23.9943ZM14.3343 25.7273C14.3996 25.8844 14.4172 26.0576 14.385 26.2249C14.3529 26.3922 14.2723 26.5461 14.1536 26.6671C14.0348 26.7881 13.8832 26.8708 13.718 26.9048C13.5527 26.9388 13.3812 26.9225 13.2251 26.858L11.252 26.0424L11.8977 24.4475L13.8708 25.263C13.9746 25.3056 14.069 25.3685 14.1486 25.4483C14.2282 25.5279 14.2913 25.6228 14.3343 25.7273ZM8.26631 20.8263C8.31189 20.8263 8.35792 20.8256 8.40401 20.8247L9.28744 21.9963C8.1634 21.8921 7.26758 21.4502 6.7072 20.707L6.63325 20.609C7.165 20.7576 7.71462 20.8307 8.26631 20.8263ZM10.4106 21.9938C10.3938 21.9953 10.3772 21.9963 10.3605 21.9977L9.41147 20.7391C10.0251 20.6463 10.6285 20.4944 11.2135 20.2855L12.2186 21.6183C11.6313 21.8099 11.025 21.9359 10.4106 21.9938ZM14.2774 18.6618L15.3107 20.0321C14.6078 20.5396 13.8516 20.9672 13.0558 21.307L12.0375 19.9566C12.8258 19.603 13.5763 19.1692 14.2774 18.6618ZM15.9889 19.5099L14.9557 18.1397C15.6259 17.5913 16.2391 16.9754 16.7856 16.3013L17.8039 17.6517C17.2684 18.3367 16.6598 18.9599 15.9889 19.5099ZM18.3232 16.9187L17.3182 15.5859C17.6728 15.0714 17.9779 14.5239 18.2294 13.9508L19.1784 15.2093C19.1726 15.2253 19.1672 15.2411 19.1613 15.2571C18.943 15.8403 18.6619 16.3975 18.3232 16.9187ZM19.4619 14.1637L18.5786 12.9922C18.7535 12.4146 18.8425 11.8139 18.8427 11.2099L18.9165 11.3078C19.4769 12.051 19.6608 13.041 19.4619 14.1637ZM4.91197 14.7017C5.51564 13.0634 6.76114 11.4582 8.41907 10.1819C10.077 8.90554 11.9392 8.11825 13.6627 7.96501C13.8654 7.94699 14.0627 7.93802 14.2549 7.93808C15.6283 7.93808 16.7201 8.39495 17.3662 9.25172C18.1025 10.2283 18.1895 11.6309 17.611 13.201C17.0073 14.8393 15.7618 16.4445 14.1039 17.7209C12.4459 18.9972 10.5837 19.7844 8.86023 19.9377C7.20863 20.0845 5.89381 19.6277 5.15727 18.6516L5.15677 18.6509C4.4204 17.6743 4.33344 16.2718 4.91197 14.7017ZM6.0289 21.2292C6.8416 22.307 8.17099 22.8824 9.81668 22.8824C10.0341 22.8824 10.257 22.8723 10.4853 22.852C10.8952 22.8147 11.3019 22.7484 11.7026 22.6537L10.4627 25.7161L9.67346 25.3899L9.35057 26.1874L10.1398 26.5136L9.81695 27.3111L10.6062 27.6373L10.9291 26.8398L11.7183 27.1661L11.3954 27.9635L12.1847 28.2898L12.5076 27.4923L12.9022 27.6554C13.2144 27.7845 13.5575 27.8171 13.888 27.7491C14.2185 27.6812 14.5217 27.5157 14.7592 27.2737C14.9966 27.0316 15.1578 26.7238 15.2221 26.3893C15.2865 26.0547 15.2512 25.7084 15.1207 25.3941C15.1066 25.3601 15.0912 25.327 15.0752 25.2942C15.2978 25.2165 15.5021 25.0929 15.6749 24.9313C15.8478 24.7696 15.9856 24.5734 16.0795 24.3552C16.0917 24.37 16.1035 24.3849 16.1158 24.3996C17.2177 25.7251 18.5196 26.7816 19.875 27.4657C19.3841 28.5377 18.2561 29.2796 16.6811 29.561C14.9774 29.8653 12.9767 29.5938 11.0476 28.7964C9.11841 27.999 7.50304 26.7758 6.49894 25.3522C5.53661 23.9877 5.26001 22.6105 5.72011 21.4742C5.77566 21.3381 5.84143 21.2065 5.91681 21.0805L6.0289 21.2292ZM10.3326 29.4245L9.68708 31.0188C8.89789 30.6637 8.14991 30.2217 7.45674 29.7007L8.0929 28.1295C8.79399 28.6369 9.54443 29.0708 10.3326 29.4245ZM11.1222 29.75C11.9296 30.0561 12.7657 30.2783 13.6177 30.4131L12.9815 31.9844C12.1257 31.8651 11.2855 31.6507 10.4763 31.3451L11.1222 29.75ZM4.75148 23.8666L4.79761 23.7527C4.95309 24.3359 5.19345 24.8926 5.51083 25.4044L4.95897 26.7675C4.47833 25.7356 4.40138 24.7313 4.75148 23.8666ZM5.53032 27.7446C5.52052 27.7307 5.51124 27.7168 5.50158 27.7029L6.09448 26.2385C6.48464 26.726 6.92001 27.1746 7.3947 27.5784L6.76681 29.1292C6.30574 28.7148 5.89108 28.2505 5.53032 27.7446ZM13.87 32.0654L14.4981 30.5142C14.7551 30.5334 15.0099 30.5437 15.2614 30.5437C15.6268 30.544 15.9919 30.5225 16.3548 30.4795L15.7619 31.944C15.7453 31.9471 15.7291 31.9504 15.7125 31.9534C15.1042 32.0587 14.4864 32.0963 13.87 32.0654ZM16.7977 31.6611L17.3496 30.298C17.9311 30.1577 18.4887 29.9309 19.0042 29.6249L18.958 29.7388C18.6079 30.6036 17.8564 31.2654 16.7977 31.6611ZM19.7212 26.4032L20.991 25.3255C21.5165 25.659 22.0722 25.9409 22.6508 26.1674L21.4517 27.185C21.4357 27.18 21.4198 27.1753 21.4037 27.1701C20.8168 26.9775 20.2526 26.7203 19.7212 26.4032ZM25.2962 26.7353C24.5882 27.3362 23.6182 27.5688 22.4989 27.4215L23.615 26.4743C24.0996 26.5975 24.5971 26.6614 25.0967 26.6647C25.1958 26.6647 25.2934 26.661 25.3903 26.6554L25.2962 26.7353ZM27.2551 25.0727C26.3246 25.8624 24.9423 26.0168 23.3625 25.5076C21.7143 24.9763 20.0682 23.7955 18.7276 22.1829C18.086 21.4166 17.5427 20.5717 17.1104 19.668C18.4277 18.4454 19.4227 17.0173 19.9605 15.5577C20.3598 14.4739 20.4814 13.4456 20.3309 12.5345C22.2109 12.8339 24.3067 14.1582 25.9101 16.087C27.2507 17.6996 28.1176 19.5416 28.351 21.2738C28.5747 22.9339 28.1855 24.2831 27.2551 25.0727Z" fill="#999999"/>
<path d="M21.5811 21.5186L22.3278 21.0169C22.467 21.1648 22.6263 21.2751 22.8057 21.3477C23.2 21.5104 23.6004 21.4552 24.0069 21.1821C24.3346 20.9618 24.5332 20.7318 24.6026 20.492C24.669 20.2474 24.6266 20.0103 24.4755 19.7807C24.3558 19.5989 24.1872 19.5018 23.9696 19.4894C23.7562 19.4741 23.49 19.5151 23.171 19.6121C22.5518 19.8075 22.1199 19.9149 21.8754 19.9343C21.2087 20.0029 20.7006 19.7718 20.3511 19.2409C20.115 18.8822 20.0223 18.4823 20.073 18.0412C20.1279 17.5973 20.3334 17.2143 20.6897 16.8921L20.2411 16.2105L20.9566 15.7297L21.4052 16.4113C21.9639 16.1876 22.5011 16.213 23.0167 16.4873C23.2536 16.611 23.4668 16.7713 23.6562 16.9682L22.9096 17.4699C22.7924 17.3555 22.6619 17.2708 22.518 17.2157C22.1863 17.0936 21.838 17.1552 21.473 17.4005C21.1909 17.59 21.0193 17.802 20.9581 18.0362C20.897 18.2705 20.9356 18.4928 21.0742 18.7033C21.2819 19.019 21.7183 19.0775 22.3833 18.879C22.4384 18.8627 22.5444 18.8329 22.7013 18.7895C22.8551 18.7413 22.9668 18.7111 23.0365 18.6988C23.1071 18.6789 23.2163 18.6539 23.3639 18.6236C23.5125 18.5858 23.6285 18.5666 23.7117 18.5658C23.795 18.5651 23.9027 18.5651 24.0349 18.566C24.1639 18.562 24.2733 18.5782 24.363 18.6145C24.4537 18.6433 24.5507 18.6816 24.654 18.7294C24.7614 18.7745 24.8601 18.8427 24.9501 18.934C25.037 19.0205 25.1198 19.1235 25.1985 19.2431C25.4629 19.6449 25.5589 20.0633 25.4863 20.4984C25.4147 20.9259 25.2034 21.3093 24.8524 21.6486L25.3011 22.3302L24.5855 22.811L24.1369 22.1294C23.4943 22.4165 22.8822 22.4 22.3008 22.0802C22.0325 21.9363 21.7926 21.7491 21.5811 21.5186Z" fill="#999999"/>
</g>
</g>
<defs>
<clipPath id="clip0_3031_5317">
<rect width="133" height="28" fill="white" transform="translate(3.5 6)"/>
</clipPath>
</defs>
</svg>