<svg width="140" height="40" viewBox="0 0 140 40" fill="none" xmlns="http://www.w3.org/2000/svg">
<g opacity="0.3">
<path d="M38.6483 20.8926H34.5789V28.5H31.5163V10.1807H38.2847C40.3451 10.1807 41.9299 10.6421 43.0393 11.5651C44.1488 12.4787 44.7035 13.7933 44.7035 15.5087C44.7035 17.4012 43.7432 18.767 41.8227 19.606C43.7619 20.2213 44.7314 21.6664 44.7314 23.9411V25.4654C44.7314 26.7986 45.0251 27.7122 45.6124 28.2063V28.5H42.466C41.9346 28.0525 41.6689 27.0317 41.6689 25.4375V23.9691C41.6689 23.0182 41.3985 22.2677 40.8578 21.7177C40.3264 21.1676 39.5899 20.8926 38.6483 20.8926ZM34.5789 12.6279V18.4453H38.1309C39.3522 18.4453 40.2425 18.2123 40.8019 17.7461C41.3706 17.28 41.6549 16.5668 41.6549 15.6065C41.6549 14.6463 41.3706 13.9098 40.8019 13.397C40.2425 12.8843 39.4034 12.6279 38.2847 12.6279H34.5789ZM52.7724 28.7937C51.2714 28.7937 50.12 28.3229 49.3183 27.3813C48.5165 26.4303 48.1156 24.99 48.1156 23.0601V14.9073H51.1642V23.0741C51.1642 24.2488 51.346 25.0832 51.7096 25.5773C52.0825 26.0621 52.6745 26.3045 53.4856 26.3045C54.9119 26.3045 55.9281 25.7871 56.5341 24.7522V14.9073H59.5967V28.528H56.9257L56.66 26.5422C55.7557 28.0432 54.4598 28.7937 52.7724 28.7937ZM68.6305 17.1588C67.3346 17.1588 66.4023 17.7321 65.8336 18.8789V24.5844C66.3837 25.7311 67.3299 26.3045 68.6724 26.3045C69.6979 26.3045 70.4577 25.9455 70.9519 25.2277C71.446 24.5098 71.693 23.4936 71.693 22.1791L71.679 21.9134C71.679 20.4311 71.4273 19.2704 70.9239 18.4314C70.4205 17.583 69.656 17.1588 68.6305 17.1588ZM74.7416 21.9134V22.1791C74.7416 24.2022 74.2754 25.8104 73.3432 27.0037C72.4109 28.197 71.1103 28.7937 69.4416 28.7937C67.7728 28.7937 66.5095 28.1178 65.6518 26.766L65.3582 28.528H62.7851V8.89412H65.8476V16.4596C66.7146 15.2569 67.9033 14.6556 69.4136 14.6556C71.101 14.6556 72.4109 15.3082 73.3432 16.6134C74.2754 17.9186 74.7416 19.6853 74.7416 21.9134Z" fill="white"/>
<rect x="77.71" y="6.1134" width="32.7733" height="27.7733" rx="2.38664" fill="#939393"/>
<path d="M93.1719 17.8021V20.2493H85.159V26.0528H94.4585V28.5H82.0964V10.1807H94.3746V12.6279H85.159V17.8021H93.1719ZM99.0453 14.8794L101.521 19.5501L104.038 14.8794H107.562L103.283 21.6198L107.688 28.5H104.205L101.576 23.7174L98.9474 28.5H95.4514L99.8564 21.6198L95.5772 14.8794H99.0453Z" fill="white"/>
</g>
</svg>