<svg width="340" height="340" viewBox="0 0 340 340" fill="none" xmlns="http://www.w3.org/2000/svg">
<path d="M50 71.3405C50 66.7301 53.7374 62.9927 58.3478 62.9927H281.652C286.263 62.9927 290 66.7301 290 71.3405V108.688C290 113.299 286.263 117.036 281.652 117.036H58.3478C53.7374 117.036 50 113.299 50 108.688V71.3405Z" fill="url(#paint0_linear_3388_45414)"/>
<path fill-rule="evenodd" clip-rule="evenodd" d="M70.6788 78.3062C70.6975 78.3068 70.7161 78.3084 70.7345 78.312C70.7412 78.3133 70.7475 78.3162 70.754 78.3179C70.7701 78.3221 70.7864 78.326 70.8019 78.3325C70.9269 78.3851 71.0146 78.5088 71.0147 78.6528V84.6079C71.0147 84.7998 70.859 84.9553 70.6671 84.9556C70.475 84.9555 70.3185 84.8 70.3185 84.6079V79.4927L62.9718 86.8394C62.836 86.975 62.6154 86.975 62.4796 86.8394C62.3441 86.7035 62.344 86.4829 62.4796 86.3472L69.8263 79.0005H64.711C64.519 79.0004 64.3634 78.8449 64.3634 78.6528C64.3636 78.461 64.5191 78.3052 64.711 78.3052H70.6671C70.671 78.3052 70.6749 78.306 70.6788 78.3062Z" fill="#D35B5D"/>
<path d="M79.4155 81.5618V82.5895H75.8266V81.5618H79.4155ZM84.0459 78.0282V86.123H82.8206V79.2535H82.7732L80.8364 80.5183V79.3483L82.8562 78.0282H84.0459Z" fill="white"/>
<path d="M94.921 78.0282H96.1463V83.3523C96.1463 83.9188 96.0133 84.4208 95.7471 84.8582C95.481 85.293 95.1068 85.6356 94.6246 85.8859C94.1424 86.1336 93.5772 86.2574 92.9289 86.2574C92.2834 86.2574 91.7195 86.1336 91.2372 85.8859C90.755 85.6356 90.3808 85.293 90.1147 84.8582C89.8486 84.4208 89.7155 83.9188 89.7155 83.3523V78.0282H90.9368V83.2535C90.9368 83.6198 91.0172 83.9452 91.178 84.2298C91.3413 84.5144 91.5719 84.7383 91.8696 84.9017C92.1674 85.0624 92.5205 85.1428 92.9289 85.1428C93.34 85.1428 93.6944 85.0624 93.9922 84.9017C94.2926 84.7383 94.5218 84.5144 94.6799 84.2298C94.8407 83.9452 94.921 83.6198 94.921 83.2535V78.0282ZM102.337 80.1547C102.295 79.7805 102.121 79.4906 101.815 79.2851C101.51 79.0769 101.125 78.9728 100.661 78.9728C100.329 78.9728 100.042 79.0256 99.7995 79.131C99.5571 79.2337 99.3687 79.376 99.2343 79.5578C99.1025 79.737 99.0366 79.9412 99.0366 80.1705C99.0366 80.3628 99.0814 80.5288 99.171 80.6685C99.2633 80.8082 99.3832 80.9254 99.5307 81.0203C99.6809 81.1125 99.8417 81.1902 100.013 81.2535C100.184 81.3141 100.349 81.3642 100.507 81.4037L101.298 81.6092C101.556 81.6725 101.821 81.7581 102.092 81.8661C102.363 81.9742 102.615 82.1165 102.847 82.293C103.079 82.4696 103.266 82.6883 103.408 82.9491C103.553 83.21 103.626 83.5223 103.626 83.8859C103.626 84.3444 103.507 84.7515 103.27 85.1072C103.035 85.463 102.694 85.7436 102.246 85.9491C101.801 86.1547 101.262 86.2574 100.63 86.2574C100.023 86.2574 99.4991 86.1613 99.0564 85.9689C98.6137 85.7765 98.2672 85.5038 98.0169 85.1507C97.7666 84.795 97.6282 84.3734 97.6019 83.8859H98.8272C98.8509 84.1784 98.9457 84.4221 99.1117 84.6171C99.2804 84.8095 99.4951 84.9531 99.756 85.0479C100.02 85.1402 100.308 85.1863 100.622 85.1863C100.967 85.1863 101.274 85.1323 101.543 85.0242C101.814 84.9136 102.027 84.7607 102.183 84.5657C102.338 84.3681 102.416 84.1375 102.416 83.874C102.416 83.6342 102.348 83.4379 102.211 83.2851C102.076 83.1323 101.893 83.0058 101.661 82.9057C101.432 82.8055 101.172 82.7173 100.882 82.6408L99.926 82.38C99.2778 82.2034 98.7639 81.9439 98.3845 81.6013C98.0077 81.2588 97.8193 80.8055 97.8193 80.2416C97.8193 79.7752 97.9457 79.3681 98.1987 79.0203C98.4517 78.6725 98.7942 78.4024 99.2264 78.21C99.6585 78.015 100.146 77.9175 100.689 77.9175C101.237 77.9175 101.72 78.0137 102.139 78.2061C102.561 78.3984 102.893 78.6632 103.135 79.0005C103.378 79.3352 103.504 79.7199 103.515 80.1547H102.337ZM107.706 86.123H105.085V78.0282H107.789C108.582 78.0282 109.263 78.1902 109.832 78.5144C110.401 78.8358 110.837 79.2983 111.14 79.9017C111.446 80.5025 111.599 81.2232 111.599 82.0638C111.599 82.907 111.445 83.6316 111.136 84.2377C110.831 84.8437 110.388 85.3101 109.808 85.6369C109.229 85.961 108.528 86.123 107.706 86.123ZM106.306 85.0559H107.638C108.255 85.0559 108.768 84.9399 109.176 84.708C109.584 84.4735 109.89 84.1349 110.093 83.6922C110.296 83.2469 110.397 82.7041 110.397 82.0638C110.397 81.4287 110.296 80.8898 110.093 80.4472C109.893 80.0045 109.594 79.6685 109.196 79.4393C108.798 79.21 108.304 79.0954 107.714 79.0954H106.306V85.0559Z" fill="#A6A6A6"/>
<path d="M242.453 79.5519V85.623H241.537V79.5519H242.453ZM245.753 85.623H243.787V79.5519H245.815C246.41 79.5519 246.921 79.6734 247.347 79.9165C247.774 80.1576 248.101 80.5045 248.329 80.957C248.558 81.4076 248.672 81.9481 248.672 82.5786C248.672 83.211 248.557 83.7545 248.326 84.209C248.096 84.6636 247.764 85.0134 247.33 85.2584C246.895 85.5015 246.369 85.623 245.753 85.623ZM244.703 84.8227H245.702C246.165 84.8227 246.549 84.7357 246.855 84.5618C247.162 84.3859 247.391 84.1319 247.543 83.7999C247.695 83.4659 247.771 83.0588 247.771 82.5786C247.771 82.1023 247.695 81.6981 247.543 81.3661C247.393 81.0341 247.169 80.7821 246.87 80.6102C246.572 80.4383 246.201 80.3523 245.758 80.3523H244.703V84.8227ZM251.81 84.4373V83.6962L254.434 79.5519H255.018V80.6428H254.647L252.771 83.6132V83.6606H256.367V84.4373H251.81ZM254.689 85.623V84.212L254.695 83.874V79.5519H255.563V85.623H254.689ZM259.513 85.7061C259.106 85.7061 258.743 85.6359 258.422 85.4956C258.104 85.3553 257.852 85.1606 257.667 84.9116C257.483 84.6606 257.384 84.3701 257.37 84.04H258.301C258.313 84.2199 258.373 84.376 258.482 84.5084C258.592 84.6389 258.737 84.7396 258.915 84.8108C259.092 84.8819 259.29 84.9175 259.507 84.9175C259.747 84.9175 259.958 84.876 260.142 84.793C260.328 84.71 260.473 84.5944 260.578 84.4462C260.682 84.296 260.735 84.123 260.735 83.9274C260.735 83.7238 260.682 83.545 260.578 83.3908C260.475 83.2347 260.324 83.1122 260.124 83.0232C259.926 82.9343 259.687 82.8898 259.407 82.8898H258.894V82.1428H259.407C259.632 82.1428 259.83 82.1023 260 82.0213C260.172 81.9402 260.306 81.8276 260.403 81.6833C260.5 81.5371 260.548 81.3661 260.548 81.1705C260.548 80.9827 260.505 80.8197 260.421 80.6813C260.338 80.541 260.219 80.4313 260.065 80.3523C259.913 80.2732 259.733 80.2337 259.525 80.2337C259.328 80.2337 259.143 80.2703 258.971 80.3434C258.801 80.4145 258.663 80.5173 258.556 80.6517C258.449 80.7841 258.392 80.9432 258.384 81.129H257.498C257.507 80.8009 257.604 80.5124 257.788 80.2634C257.974 80.0144 258.219 79.8197 258.523 79.6794C258.828 79.5391 259.166 79.4689 259.537 79.4689C259.926 79.4689 260.262 79.545 260.545 79.6972C260.83 79.8474 261.049 80.0479 261.203 80.2989C261.359 80.5499 261.436 80.8246 261.434 81.123C261.436 81.463 261.341 81.7515 261.15 81.9887C260.96 82.2258 260.707 82.3849 260.391 82.4659V82.5134C260.794 82.5746 261.106 82.7347 261.328 82.9936C261.551 83.2525 261.662 83.5736 261.66 83.957C261.662 84.291 261.569 84.5904 261.381 84.8553C261.195 85.1201 260.941 85.3286 260.619 85.4808C260.297 85.631 259.928 85.7061 259.513 85.7061ZM264.784 85.7061C264.413 85.7061 264.079 85.6349 263.782 85.4926C263.488 85.3483 263.253 85.1507 263.077 84.8997C262.901 84.6487 262.807 84.3622 262.795 84.04H263.684C263.706 84.3009 263.822 84.5153 264.031 84.6833C264.241 84.8513 264.492 84.9353 264.784 84.9353C265.017 84.9353 265.224 84.8819 265.404 84.7752C265.586 84.6665 265.728 84.5173 265.831 84.3276C265.935 84.1379 265.988 83.9215 265.988 83.6784C265.988 83.4313 265.934 83.211 265.828 83.0173C265.721 82.8236 265.574 82.6715 265.386 82.5608C265.2 82.4501 264.987 82.3938 264.746 82.3918C264.562 82.3918 264.377 82.4234 264.191 82.4867C264.005 82.5499 263.855 82.6329 263.741 82.7357L262.902 82.6112L263.243 79.5519H266.581V80.3375H264.005L263.812 82.0361H263.847C263.966 81.9215 264.123 81.8256 264.319 81.7485C264.516 81.6715 264.728 81.6329 264.953 81.6329C265.323 81.6329 265.652 81.7209 265.94 81.8968C266.231 82.0727 266.459 82.3128 266.625 82.6171C266.793 82.9195 266.876 83.2673 266.874 83.6606C266.876 84.0539 266.787 84.4047 266.607 84.713C266.429 85.0213 266.182 85.2644 265.866 85.4422C265.552 85.6181 265.191 85.7061 264.784 85.7061ZM270.07 85.7061C269.663 85.7061 269.3 85.6359 268.98 85.4956C268.661 85.3553 268.409 85.1606 268.224 84.9116C268.04 84.6606 267.941 84.3701 267.927 84.04H268.858C268.87 84.2199 268.93 84.376 269.039 84.5084C269.15 84.6389 269.294 84.7396 269.472 84.8108C269.65 84.8819 269.847 84.9175 270.065 84.9175C270.304 84.9175 270.515 84.876 270.699 84.793C270.885 84.71 271.03 84.5944 271.135 84.4462C271.239 84.296 271.292 84.123 271.292 83.9274C271.292 83.7238 271.239 83.545 271.135 83.3908C271.032 83.2347 270.881 83.1122 270.681 83.0232C270.484 82.9343 270.244 82.8898 269.964 82.8898H269.451V82.1428H269.964C270.189 82.1428 270.387 82.1023 270.557 82.0213C270.729 81.9402 270.863 81.8276 270.96 81.6833C271.057 81.5371 271.105 81.3661 271.105 81.1705C271.105 80.9827 271.063 80.8197 270.978 80.6813C270.895 80.541 270.776 80.4313 270.622 80.3523C270.47 80.2732 270.29 80.2337 270.082 80.2337C269.885 80.2337 269.7 80.2703 269.528 80.3434C269.358 80.4145 269.22 80.5173 269.113 80.6517C269.006 80.7841 268.949 80.9432 268.941 81.129H268.055C268.065 80.8009 268.161 80.5124 268.345 80.2634C268.531 80.0144 268.776 79.8197 269.08 79.6794C269.385 79.5391 269.723 79.4689 270.094 79.4689C270.484 79.4689 270.819 79.545 271.102 79.6972C271.387 79.8474 271.606 80.0479 271.76 80.2989C271.916 80.5499 271.993 80.8246 271.991 81.123C271.993 81.463 271.899 81.7515 271.707 81.9887C271.517 82.2258 271.264 82.3849 270.948 82.4659V82.5134C271.351 82.5746 271.663 82.7347 271.885 82.9936C272.108 83.2525 272.219 83.5736 272.217 83.957C272.219 84.291 272.126 84.5904 271.938 84.8553C271.752 85.1201 271.498 85.3286 271.176 85.4808C270.854 85.631 270.485 85.7061 270.07 85.7061ZM273.21 84.4373V83.6962L275.833 79.5519H276.417V80.6428H276.047L274.17 83.6132V83.6606H277.766V84.4373H273.21ZM276.088 85.623V84.212L276.094 83.874V79.5519H276.963V85.623H276.088Z" fill="#A6A6A6"/>
<g clip-path="url(#clip0_3388_45414)">
<rect x="61.8262" y="95.7314" width="9.73913" height="8.34783" rx="1.3913" fill="white" fill-opacity="0.15"/>
<path d="M68.0869 99.7316C68.0869 98.9632 68.7098 98.3403 69.4782 98.3403H71.5652V101.123H69.4782C68.7098 101.123 68.0869 100.5 68.0869 99.7316Z" fill="white"/>
</g>
<path d="M80.7135 96.8346V102.906H79.7946V97.7536H79.759L78.3064 98.7022V97.8247L79.8212 96.8346H80.7135ZM84.4072 102.989C83.9823 102.989 83.6068 102.916 83.2807 102.769C82.9566 102.623 82.7027 102.422 82.5189 102.165C82.3351 101.908 82.2442 101.615 82.2461 101.287C82.2442 101.03 82.2965 100.794 82.4032 100.579C82.5119 100.361 82.6592 100.18 82.8449 100.036C83.0307 99.89 83.2382 99.7971 83.4675 99.7575V99.722C83.1651 99.6488 82.923 99.4868 82.7412 99.2358C82.5594 98.9848 82.4695 98.6963 82.4714 98.3702C82.4695 98.0599 82.5515 97.7832 82.7175 97.5401C82.8855 97.2951 83.1157 97.1024 83.4082 96.9621C83.7007 96.8218 84.0337 96.7516 84.4072 96.7516C84.7768 96.7516 85.1068 96.8228 85.3973 96.9651C85.6898 97.1054 85.92 97.2981 86.088 97.5431C86.256 97.7862 86.341 98.0619 86.343 98.3702C86.341 98.6963 86.2481 98.9848 86.0643 99.2358C85.8805 99.4868 85.6414 99.6488 85.3469 99.722V99.7575C85.5742 99.7971 85.7787 99.89 85.9606 100.036C86.1444 100.18 86.2906 100.361 86.3993 100.579C86.51 100.794 86.5663 101.03 86.5683 101.287C86.5663 101.615 86.4734 101.908 86.2896 102.165C86.1058 102.422 85.8509 102.623 85.5248 102.769C85.2007 102.916 84.8281 102.989 84.4072 102.989ZM84.4072 102.239C84.6582 102.239 84.8756 102.197 85.0594 102.114C85.2432 102.029 85.3855 101.912 85.4863 101.761C85.587 101.609 85.6384 101.431 85.6404 101.228C85.6384 101.016 85.5831 100.83 85.4744 100.668C85.3677 100.506 85.2224 100.378 85.0386 100.285C84.8548 100.192 84.6444 100.146 84.4072 100.146C84.1681 100.146 83.9556 100.192 83.7698 100.285C83.5841 100.378 83.4378 100.506 83.3311 100.668C83.2244 100.83 83.172 101.016 83.174 101.228C83.172 101.431 83.2204 101.609 83.3193 101.761C83.42 101.912 83.5633 102.029 83.7491 102.114C83.9349 102.197 84.1542 102.239 84.4072 102.239ZM84.4072 99.4137C84.6088 99.4137 84.7876 99.3732 84.9438 99.2921C85.0999 99.2111 85.2224 99.0984 85.3113 98.9542C85.4023 98.8099 85.4487 98.6409 85.4507 98.4473C85.4487 98.2575 85.4032 98.0915 85.3143 97.9492C85.2274 97.8069 85.1058 97.6973 84.9497 97.6202C84.7936 97.5411 84.6127 97.5016 84.4072 97.5016C84.1977 97.5016 84.0139 97.5411 83.8558 97.6202C83.6997 97.6973 83.5781 97.8069 83.4912 97.9492C83.4042 98.0915 83.3617 98.2575 83.3637 98.4473C83.3617 98.6409 83.4052 98.8099 83.4942 98.9542C83.5831 99.0984 83.7056 99.2111 83.8617 99.2921C84.0198 99.3732 84.2017 99.4137 84.4072 99.4137ZM88.0468 102.962C87.8847 102.962 87.7454 102.905 87.6288 102.79C87.5122 102.674 87.4539 102.533 87.4539 102.369C87.4539 102.207 87.5122 102.069 87.6288 101.954C87.7454 101.838 87.8847 101.779 88.0468 101.779C88.2088 101.779 88.3482 101.838 88.4648 101.954C88.5814 102.069 88.6397 102.207 88.6397 102.369C88.6397 102.478 88.612 102.578 88.5567 102.669C88.5033 102.758 88.4322 102.829 88.3432 102.882C88.2543 102.935 88.1555 102.962 88.0468 102.962ZM89.8151 102.906V102.242L91.8694 100.113C92.0888 99.882 92.2696 99.6795 92.4119 99.5056C92.5562 99.3297 92.6639 99.1627 92.735 99.0046C92.8062 98.8465 92.8417 98.6785 92.8417 98.5006C92.8417 98.299 92.7943 98.1251 92.6994 97.9789C92.6046 97.8307 92.4751 97.717 92.3111 97.638C92.1471 97.5569 91.9623 97.5164 91.7568 97.5164C91.5394 97.5164 91.3496 97.5609 91.1876 97.6498C91.0255 97.7388 90.901 97.8643 90.8141 98.0263C90.7271 98.1884 90.6836 98.3781 90.6836 98.5955H89.8091C89.8091 98.2259 89.8941 97.9028 90.0641 97.6261C90.234 97.3494 90.4672 97.135 90.7637 96.9828C91.0601 96.8287 91.3971 96.7516 91.7745 96.7516C92.156 96.7516 92.4919 96.8277 92.7824 96.9799C93.0749 97.1301 93.3032 97.3356 93.4672 97.5965C93.6313 97.8554 93.7133 98.1479 93.7133 98.4739C93.7133 98.6992 93.6708 98.9196 93.5858 99.135C93.5028 99.3504 93.3575 99.5905 93.15 99.8554C92.9425 100.118 92.654 100.437 92.2844 100.813L91.0779 102.076V102.12H93.8111V102.906H89.8151ZM97.0483 102.989C96.6411 102.989 96.2775 102.919 95.9573 102.778C95.6392 102.638 95.3872 102.443 95.2014 102.194C95.0176 101.943 94.9188 101.653 94.905 101.323H95.8358C95.8477 101.503 95.9079 101.659 96.0166 101.791C96.1273 101.922 96.2716 102.022 96.4494 102.094C96.6273 102.165 96.8249 102.2 97.0423 102.2C97.2815 102.2 97.4929 102.159 97.6767 102.076C97.8625 101.993 98.0077 101.877 98.1125 101.729C98.2172 101.579 98.2696 101.406 98.2696 101.21C98.2696 101.007 98.2172 100.828 98.1125 100.674C98.0097 100.517 97.8585 100.395 97.6589 100.306C97.4613 100.217 97.2222 100.173 96.9415 100.173H96.4287V99.4255H96.9415C97.1668 99.4255 97.3645 99.385 97.5344 99.304C97.7064 99.223 97.8407 99.1103 97.9376 98.966C98.0344 98.8198 98.0828 98.6488 98.0828 98.4532C98.0828 98.2654 98.0404 98.1024 97.9554 97.9641C97.8724 97.8237 97.7538 97.7141 97.5996 97.635C97.4475 97.556 97.2676 97.5164 97.0601 97.5164C96.8625 97.5164 96.6777 97.553 96.5058 97.6261C96.3358 97.6973 96.1975 97.8 96.0907 97.9344C95.984 98.0668 95.9267 98.2259 95.9188 98.4117H95.0324C95.0423 98.0836 95.1392 97.7951 95.323 97.5461C95.5087 97.2971 95.7538 97.1024 96.0581 96.9621C96.3625 96.8218 96.7004 96.7516 97.072 96.7516C97.4613 96.7516 97.7973 96.8277 98.0799 96.9799C98.3645 97.1301 98.5838 97.3307 98.738 97.5817C98.8941 97.8326 98.9712 98.1073 98.9692 98.4058C98.9712 98.7457 98.8763 99.0342 98.6846 99.2714C98.4949 99.5085 98.2419 99.6676 97.9257 99.7486V99.7961C98.3289 99.8573 98.6411 100.017 98.8625 100.276C99.0858 100.535 99.1965 100.856 99.1945 101.24C99.1965 101.574 99.1036 101.873 98.9158 102.138C98.7301 102.403 98.4761 102.611 98.154 102.763C97.8319 102.914 97.4633 102.989 97.0483 102.989ZM106.511 96.8346H107.43V100.828C107.43 101.253 107.331 101.629 107.131 101.957C106.931 102.283 106.651 102.54 106.289 102.728C105.927 102.914 105.504 103.007 105.017 103.007C104.533 103.007 104.11 102.914 103.749 102.728C103.387 102.54 103.106 102.283 102.907 101.957C102.707 101.629 102.607 101.253 102.607 100.828V96.8346H103.523V100.754C103.523 101.028 103.584 101.272 103.704 101.486C103.827 101.699 104 101.867 104.223 101.99C104.446 102.11 104.711 102.171 105.017 102.171C105.326 102.171 105.591 102.11 105.815 101.99C106.04 101.867 106.212 101.699 106.331 101.486C106.451 101.272 106.511 101.028 106.511 100.754V96.8346ZM112.073 98.4295C112.042 98.1488 111.911 97.9315 111.682 97.7773C111.453 97.6212 111.164 97.5431 110.817 97.5431C110.568 97.5431 110.352 97.5826 110.17 97.6617C109.988 97.7388 109.847 97.8455 109.746 97.9818C109.648 98.1162 109.598 98.2694 109.598 98.4413C109.598 98.5856 109.632 98.7101 109.699 98.8149C109.768 98.9196 109.858 99.0075 109.969 99.0787C110.081 99.1479 110.202 99.2062 110.33 99.2536C110.459 99.299 110.582 99.3366 110.701 99.3662L111.294 99.5204C111.487 99.5678 111.686 99.632 111.89 99.7131C112.093 99.7941 112.282 99.9008 112.456 100.033C112.63 100.166 112.77 100.33 112.877 100.525C112.986 100.721 113.04 100.955 113.04 101.228C113.04 101.572 112.951 101.877 112.773 102.144C112.597 102.411 112.341 102.621 112.005 102.775C111.671 102.929 111.267 103.007 110.793 103.007C110.338 103.007 109.945 102.934 109.613 102.79C109.281 102.646 109.021 102.441 108.833 102.177C108.646 101.91 108.542 101.594 108.522 101.228H109.441C109.459 101.447 109.53 101.63 109.654 101.776C109.781 101.921 109.942 102.028 110.138 102.099C110.335 102.169 110.552 102.203 110.787 102.203C111.046 102.203 111.276 102.163 111.478 102.082C111.681 101.999 111.841 101.884 111.958 101.738C112.074 101.59 112.133 101.417 112.133 101.219C112.133 101.039 112.081 100.892 111.979 100.777C111.878 100.663 111.74 100.568 111.567 100.493C111.395 100.418 111.2 100.351 110.983 100.294L110.265 100.098C109.779 99.966 109.394 99.7714 109.109 99.5145C108.826 99.2575 108.685 98.9176 108.685 98.4947C108.685 98.1449 108.78 97.8396 108.97 97.5787C109.159 97.3178 109.416 97.1152 109.74 96.971C110.065 96.8247 110.43 96.7516 110.837 96.7516C111.248 96.7516 111.611 96.8237 111.925 96.968C112.241 97.1123 112.49 97.3109 112.672 97.5639C112.854 97.8149 112.949 98.1034 112.957 98.4295H112.073ZM116.1 102.906H114.134V96.8346H116.162C116.757 96.8346 117.268 96.9562 117.695 97.1992C118.122 97.4403 118.449 97.7872 118.676 98.2398C118.905 98.6903 119.02 99.2309 119.02 99.8613C119.02 100.494 118.904 101.037 118.673 101.492C118.444 101.946 118.112 102.296 117.677 102.541C117.242 102.784 116.716 102.906 116.1 102.906ZM115.05 102.105H116.049C116.512 102.105 116.896 102.018 117.203 101.844C117.509 101.669 117.738 101.415 117.89 101.083C118.043 100.749 118.119 100.342 118.119 99.8613C118.119 99.385 118.043 98.9809 117.89 98.6488C117.74 98.3168 117.516 98.0649 117.217 97.8929C116.919 97.721 116.549 97.635 116.106 97.635H115.05V102.105Z" fill="#A6A6A6"/>
<path d="M126.782 96.6592L130.029 99.9056L126.782 103.152" stroke="#A6A6A6" stroke-width="0.695652" stroke-linecap="round" stroke-linejoin="round"/>
<path d="M139.409 96.8346V102.906H138.49V97.7536H138.454L137.002 98.7022V97.8247L138.517 96.8346H139.409ZM141.256 102.906L143.906 97.6647V97.6202H140.841V96.8346H144.854V97.6469L142.213 102.906H141.256ZM145.438 102.962C145.276 102.962 145.136 102.905 145.02 102.79C144.903 102.674 144.845 102.533 144.845 102.369C144.845 102.207 144.903 102.069 145.02 101.954C145.136 101.838 145.276 101.779 145.438 101.779C145.6 101.779 145.739 101.838 145.856 101.954C145.972 102.069 146.031 102.207 146.031 102.369C146.031 102.478 146.003 102.578 145.948 102.669C145.894 102.758 145.823 102.829 145.734 102.882C145.645 102.935 145.546 102.962 145.438 102.962ZM147.206 102.906V102.242L149.26 100.113C149.48 99.882 149.661 99.6795 149.803 99.5056C149.947 99.3297 150.055 99.1627 150.126 99.0046C150.197 98.8465 150.233 98.6785 150.233 98.5006C150.233 98.299 150.185 98.1251 150.09 97.9789C149.996 97.8307 149.866 97.717 149.702 97.638C149.538 97.5569 149.353 97.5164 149.148 97.5164C148.93 97.5164 148.741 97.5609 148.579 97.6498C148.416 97.7388 148.292 97.8643 148.205 98.0263C148.118 98.1884 148.075 98.3781 148.075 98.5955H147.2C147.2 98.2259 147.285 97.9028 147.455 97.6261C147.625 97.3494 147.858 97.135 148.155 96.9828C148.451 96.8287 148.788 96.7516 149.166 96.7516C149.547 96.7516 149.883 96.8277 150.173 96.9799C150.466 97.1301 150.694 97.3356 150.858 97.5965C151.022 97.8554 151.104 98.1479 151.104 98.4739C151.104 98.6992 151.062 98.9196 150.977 99.135C150.894 99.3504 150.749 99.5905 150.541 99.8554C150.333 100.118 150.045 100.437 149.675 100.813L148.469 102.076V102.12H151.202V102.906H147.206ZM154.439 102.989C154.032 102.989 153.668 102.919 153.348 102.778C153.03 102.638 152.778 102.443 152.592 102.194C152.409 101.943 152.31 101.653 152.296 101.323H153.227C153.239 101.503 153.299 101.659 153.408 101.791C153.518 101.922 153.663 102.022 153.84 102.094C154.018 102.165 154.216 102.2 154.433 102.2C154.672 102.2 154.884 102.159 155.068 102.076C155.253 101.993 155.399 101.877 155.503 101.729C155.608 101.579 155.661 101.406 155.661 101.21C155.661 101.007 155.608 100.828 155.503 100.674C155.401 100.517 155.249 100.395 155.05 100.306C154.852 100.217 154.613 100.173 154.333 100.173H153.82V99.4255H154.333C154.558 99.4255 154.755 99.385 154.925 99.304C155.097 99.223 155.232 99.1103 155.329 98.966C155.425 98.8198 155.474 98.6488 155.474 98.4532C155.474 98.2654 155.431 98.1024 155.346 97.9641C155.263 97.8237 155.145 97.7141 154.991 97.635C154.838 97.556 154.659 97.5164 154.451 97.5164C154.253 97.5164 154.069 97.553 153.897 97.6261C153.727 97.6973 153.588 97.8 153.482 97.9344C153.375 98.0668 153.318 98.2259 153.31 98.4117H152.423C152.433 98.0836 152.53 97.7951 152.714 97.5461C152.9 97.2971 153.145 97.1024 153.449 96.9621C153.753 96.8218 154.091 96.7516 154.463 96.7516C154.852 96.7516 155.188 96.8277 155.471 96.9799C155.755 97.1301 155.975 97.3307 156.129 97.5817C156.285 97.8326 156.362 98.1073 156.36 98.4058C156.362 98.7457 156.267 99.0342 156.076 99.2714C155.886 99.5085 155.633 99.6676 155.317 99.7486V99.7961C155.72 99.8573 156.032 100.017 156.253 100.276C156.477 100.535 156.587 100.856 156.585 101.24C156.587 101.574 156.495 101.873 156.307 102.138C156.121 102.403 155.867 102.611 155.545 102.763C155.223 102.914 154.854 102.989 154.439 102.989ZM163.902 96.8346H164.821V100.828C164.821 101.253 164.722 101.629 164.522 101.957C164.322 102.283 164.042 102.54 163.68 102.728C163.318 102.914 162.895 103.007 162.408 103.007C161.924 103.007 161.501 102.914 161.14 102.728C160.778 102.54 160.497 102.283 160.298 101.957C160.098 101.629 159.998 101.253 159.998 100.828V96.8346H160.914V100.754C160.914 101.028 160.975 101.272 161.095 101.486C161.218 101.699 161.391 101.867 161.614 101.99C161.837 102.11 162.102 102.171 162.408 102.171C162.717 102.171 162.982 102.11 163.206 101.99C163.431 101.867 163.603 101.699 163.722 101.486C163.842 101.272 163.902 101.028 163.902 100.754V96.8346ZM169.464 98.4295C169.433 98.1488 169.302 97.9315 169.073 97.7773C168.844 97.6212 168.555 97.5431 168.208 97.5431C167.958 97.5431 167.743 97.5826 167.561 97.6617C167.379 97.7388 167.238 97.8455 167.137 97.9818C167.039 98.1162 166.989 98.2694 166.989 98.4413C166.989 98.5856 167.023 98.7101 167.09 98.8149C167.159 98.9196 167.249 99.0075 167.36 99.0787C167.472 99.1479 167.593 99.2062 167.721 99.2536C167.85 99.299 167.973 99.3366 168.092 99.3662L168.685 99.5204C168.878 99.5678 169.077 99.632 169.281 99.7131C169.484 99.7941 169.673 99.9008 169.847 100.033C170.021 100.166 170.161 100.33 170.268 100.525C170.376 100.721 170.431 100.955 170.431 101.228C170.431 101.572 170.342 101.877 170.164 102.144C169.988 102.411 169.732 102.621 169.396 102.775C169.062 102.929 168.658 103.007 168.184 103.007C167.729 103.007 167.336 102.934 167.004 102.79C166.672 102.646 166.412 102.441 166.224 102.177C166.037 101.91 165.933 101.594 165.913 101.228H166.832C166.85 101.447 166.921 101.63 167.045 101.776C167.172 101.921 167.333 102.028 167.529 102.099C167.726 102.169 167.943 102.203 168.178 102.203C168.437 102.203 168.667 102.163 168.869 102.082C169.072 101.999 169.232 101.884 169.349 101.738C169.465 101.59 169.524 101.417 169.524 101.219C169.524 101.039 169.472 100.892 169.37 100.777C169.269 100.663 169.131 100.568 168.958 100.493C168.786 100.418 168.591 100.351 168.374 100.294L167.656 100.098C167.17 99.966 166.785 99.7714 166.5 99.5145C166.217 99.2575 166.076 98.9176 166.076 98.4947C166.076 98.1449 166.171 97.8396 166.361 97.5787C166.55 97.3178 166.807 97.1152 167.131 96.971C167.456 96.8247 167.821 96.7516 168.228 96.7516C168.639 96.7516 169.002 96.8237 169.316 96.968C169.632 97.1123 169.881 97.3109 170.063 97.5639C170.245 97.8149 170.34 98.1034 170.348 98.4295H169.464ZM173.491 102.906H171.525V96.8346H173.553C174.148 96.8346 174.659 96.9562 175.086 97.1992C175.513 97.4403 175.84 97.7872 176.067 98.2398C176.296 98.6903 176.411 99.2309 176.411 99.8613C176.411 100.494 176.295 101.037 176.064 101.492C175.835 101.946 175.503 102.296 175.068 102.541C174.633 102.784 174.107 102.906 173.491 102.906ZM172.441 102.105H173.44C173.903 102.105 174.287 102.018 174.594 101.844C174.9 101.669 175.129 101.415 175.281 101.083C175.434 100.749 175.51 100.342 175.51 99.8613C175.51 99.385 175.434 98.9809 175.281 98.6488C175.131 98.3168 174.907 98.0649 174.608 97.8929C174.31 97.721 173.939 97.635 173.497 97.635H172.441V102.105Z" fill="#A6A6A6"/>
<path d="M20.5898 147.43C20.5898 141.69 25.2433 137.036 30.9836 137.036H309.016C314.756 137.036 319.41 141.69 319.41 147.43V193.455C319.41 199.196 314.756 203.849 309.016 203.849H30.9836C25.2433 203.849 20.5898 199.196 20.5898 193.455V147.43Z" fill="url(#paint1_linear_3388_45414)"/>
<path d="M34.4482 156.584C34.4482 154.671 35.9994 153.12 37.9128 153.12H65.6295C67.5429 153.12 69.094 154.671 69.094 156.584V184.301C69.094 186.214 67.5429 187.765 65.6295 187.765H37.9128C35.9994 187.765 34.4482 186.214 34.4482 184.301V156.584Z" fill="white" fill-opacity="0.15"/>
<g clip-path="url(#clip1_3388_45414)">
<rect x="41.377" y="162.647" width="20.7875" height="15.5906" rx="2.59843" fill="white" fill-opacity="0.3"/>
<path d="M41.377 165.451H62.1644V168.049H41.377V165.451Z" fill="white"/>
<path d="M43.9756 173.246H46.574V175.845H43.9756V173.246Z" fill="white"/>
</g>
<path fill-rule="evenodd" clip-rule="evenodd" d="M87.4239 156.626C87.5929 156.457 87.8672 156.457 88.0362 156.626C88.2053 156.795 88.2051 157.07 88.0362 157.239L79.2198 166.056H85.3409C85.5799 166.056 85.7743 166.249 85.7745 166.488C85.7743 166.727 85.58 166.922 85.3409 166.922H78.1749C78.1247 166.922 78.0771 166.911 78.0323 166.895C78.0248 166.893 78.0172 166.891 78.0099 166.888C77.9571 166.866 77.9091 166.835 77.8692 166.795L77.8683 166.794C77.7816 166.707 77.7398 166.592 77.7423 166.478V159.322C77.7423 159.083 77.9358 158.89 78.1749 158.89C78.4141 158.89 78.6075 159.083 78.6075 159.322V165.442L87.4239 156.626Z" fill="#589050"/>
<path d="M97.2985 164.518V157.864H98.6223V164.518H97.2985ZM94.6361 161.85V160.531H101.29V161.85H94.6361ZM107.37 156.132V166.21H105.844V157.657H105.785L103.374 159.232V157.775L105.889 156.132H107.37ZM113.92 156.132V166.21H112.394V157.657H112.335L109.924 159.232V157.775L112.439 156.132H113.92Z" fill="white"/>
<path d="M127.399 156.132H128.925V162.761C128.925 163.466 128.759 164.091 128.428 164.636C128.096 165.177 127.63 165.603 127.03 165.915C126.43 166.224 125.726 166.378 124.919 166.378C124.115 166.378 123.413 166.224 122.813 165.915C122.212 165.603 121.746 165.177 121.415 164.636C121.084 164.091 120.918 163.466 120.918 162.761V156.132H122.439V162.638C122.439 163.094 122.539 163.499 122.739 163.853C122.942 164.207 123.229 164.486 123.6 164.69C123.971 164.89 124.41 164.99 124.919 164.99C125.431 164.99 125.872 164.89 126.243 164.69C126.617 164.486 126.902 164.207 127.099 163.853C127.299 163.499 127.399 163.094 127.399 162.638V156.132ZM136.633 158.779C136.58 158.313 136.364 157.953 135.983 157.697C135.603 157.437 135.124 157.308 134.546 157.308C134.133 157.308 133.775 157.373 133.473 157.505C133.171 157.633 132.937 157.81 132.77 158.036C132.605 158.259 132.523 158.514 132.523 158.799C132.523 159.039 132.579 159.245 132.691 159.419C132.806 159.593 132.955 159.739 133.139 159.857C133.326 159.972 133.526 160.069 133.739 160.147C133.952 160.223 134.157 160.285 134.354 160.334L135.338 160.59C135.66 160.669 135.99 160.776 136.328 160.91C136.666 161.045 136.979 161.222 137.268 161.442C137.556 161.662 137.789 161.934 137.966 162.259C138.147 162.583 138.237 162.972 138.237 163.425C138.237 163.996 138.089 164.503 137.794 164.946C137.502 165.389 137.077 165.738 136.52 165.994C135.965 166.25 135.294 166.378 134.507 166.378C133.752 166.378 133.099 166.258 132.548 166.019C131.997 165.779 131.565 165.439 131.254 165C130.942 164.557 130.77 164.032 130.737 163.425H132.263C132.292 163.789 132.41 164.093 132.617 164.335C132.827 164.575 133.094 164.754 133.419 164.872C133.747 164.987 134.106 165.044 134.497 165.044C134.927 165.044 135.309 164.977 135.644 164.842C135.981 164.705 136.247 164.514 136.441 164.271C136.634 164.025 136.731 163.738 136.731 163.41C136.731 163.112 136.646 162.867 136.475 162.677C136.308 162.487 136.08 162.329 135.791 162.205C135.506 162.08 135.183 161.97 134.822 161.875L133.631 161.55C132.824 161.33 132.184 161.007 131.711 160.581C131.242 160.154 131.008 159.59 131.008 158.888C131.008 158.307 131.165 157.8 131.48 157.367C131.795 156.934 132.222 156.598 132.76 156.358C133.298 156.115 133.905 155.994 134.581 155.994C135.263 155.994 135.865 156.114 136.387 156.353C136.912 156.593 137.325 156.922 137.627 157.342C137.929 157.759 138.086 158.238 138.099 158.779H136.633ZM143.317 166.21H140.054V156.132H143.42C144.408 156.132 145.256 156.333 145.965 156.737C146.673 157.137 147.216 157.713 147.594 158.464C147.974 159.212 148.164 160.11 148.164 161.156C148.164 162.206 147.973 163.108 147.589 163.863C147.208 164.618 146.657 165.198 145.935 165.605C145.213 166.009 144.341 166.21 143.317 166.21ZM141.575 164.882H143.233C144.001 164.882 144.639 164.737 145.148 164.449C145.656 164.157 146.037 163.735 146.289 163.184C146.542 162.629 146.668 161.954 146.668 161.156C146.668 160.366 146.542 159.695 146.289 159.143C146.04 158.592 145.668 158.174 145.172 157.889C144.677 157.603 144.062 157.46 143.327 157.46H141.575V164.882Z" fill="#A6A6A6"/>
<path d="M279.867 165.71L277.327 162.322H276.523V165.71H275.382V158.151H276.523V161.344H276.896L279.752 158.151H281.144L278.121 161.536L281.258 165.71H279.867ZM283.876 165.836C283.517 165.836 283.192 165.77 282.902 165.637C282.611 165.501 282.381 165.306 282.211 165.05C282.044 164.794 281.96 164.48 281.96 164.109C281.96 163.789 282.022 163.525 282.145 163.319C282.268 163.112 282.434 162.948 282.643 162.828C282.852 162.707 283.086 162.616 283.345 162.555C283.603 162.493 283.866 162.446 284.134 162.414C284.474 162.375 284.75 162.343 284.961 162.318C285.173 162.291 285.327 162.248 285.423 162.189C285.519 162.13 285.567 162.034 285.567 161.901V161.876C285.567 161.553 285.475 161.303 285.293 161.126C285.114 160.949 284.846 160.861 284.489 160.861C284.117 160.861 283.824 160.943 283.61 161.108C283.399 161.27 283.252 161.451 283.171 161.65L282.134 161.414C282.257 161.07 282.437 160.792 282.673 160.58C282.911 160.366 283.186 160.211 283.496 160.115C283.806 160.017 284.132 159.967 284.474 159.967C284.7 159.967 284.94 159.994 285.194 160.049C285.45 160.1 285.688 160.196 285.91 160.336C286.134 160.477 286.317 160.677 286.46 160.938C286.602 161.196 286.674 161.532 286.674 161.946V165.71H285.596V164.935H285.552C285.48 165.078 285.373 165.218 285.231 165.356C285.088 165.494 284.905 165.608 284.681 165.699C284.457 165.79 284.189 165.836 283.876 165.836ZM284.116 164.95C284.421 164.95 284.682 164.89 284.898 164.769C285.117 164.649 285.284 164.491 285.397 164.297C285.512 164.1 285.57 163.89 285.57 163.666V162.935C285.531 162.974 285.455 163.011 285.341 163.046C285.231 163.078 285.104 163.106 284.961 163.13C284.818 163.153 284.679 163.174 284.544 163.193C284.409 163.21 284.296 163.225 284.205 163.238C283.99 163.265 283.795 163.31 283.618 163.374C283.443 163.438 283.303 163.53 283.197 163.651C283.094 163.769 283.042 163.926 283.042 164.123C283.042 164.396 283.143 164.603 283.345 164.743C283.546 164.881 283.803 164.95 284.116 164.95ZM288.144 167.836V160.041H289.221V160.96H289.314C289.378 160.842 289.47 160.706 289.591 160.55C289.711 160.395 289.878 160.26 290.093 160.144C290.307 160.026 290.59 159.967 290.941 159.967C291.399 159.967 291.808 160.083 292.167 160.314C292.526 160.546 292.808 160.879 293.012 161.315C293.219 161.75 293.322 162.274 293.322 162.887C293.322 163.5 293.22 164.025 293.016 164.463C292.812 164.898 292.531 165.234 292.174 165.471C291.817 165.704 291.41 165.821 290.953 165.821C290.608 165.821 290.326 165.763 290.107 165.648C289.891 165.532 289.721 165.397 289.598 165.242C289.475 165.087 289.38 164.949 289.314 164.828H289.247V167.836H288.144ZM289.225 162.876C289.225 163.274 289.283 163.624 289.399 163.924C289.514 164.224 289.682 164.459 289.901 164.629C290.12 164.796 290.388 164.88 290.705 164.88C291.035 164.88 291.311 164.793 291.532 164.618C291.753 164.441 291.921 164.201 292.034 163.898C292.15 163.596 292.207 163.255 292.207 162.876C292.207 162.502 292.151 162.166 292.038 161.868C291.927 161.57 291.76 161.335 291.536 161.163C291.314 160.991 291.037 160.905 290.705 160.905C290.385 160.905 290.115 160.987 289.893 161.152C289.674 161.317 289.508 161.547 289.395 161.842C289.282 162.138 289.225 162.482 289.225 162.876ZM293.876 160.993V160.041H298.659V160.993H296.81V165.71H295.732V160.993H293.876ZM301.212 165.836C300.853 165.836 300.528 165.77 300.238 165.637C299.948 165.501 299.718 165.306 299.548 165.05C299.381 164.794 299.297 164.48 299.297 164.109C299.297 163.789 299.358 163.525 299.481 163.319C299.604 163.112 299.771 162.948 299.98 162.828C300.189 162.707 300.423 162.616 300.681 162.555C300.939 162.493 301.203 162.446 301.471 162.414C301.81 162.375 302.086 162.343 302.298 162.318C302.509 162.291 302.663 162.248 302.759 162.189C302.855 162.13 302.903 162.034 302.903 161.901V161.876C302.903 161.553 302.812 161.303 302.63 161.126C302.45 160.949 302.182 160.861 301.825 160.861C301.454 160.861 301.161 160.943 300.947 161.108C300.735 161.27 300.589 161.451 300.508 161.65L299.47 161.414C299.593 161.07 299.773 160.792 300.009 160.58C300.248 160.366 300.522 160.211 300.832 160.115C301.142 160.017 301.468 159.967 301.81 159.967C302.037 159.967 302.277 159.994 302.53 160.049C302.786 160.1 303.025 160.196 303.246 160.336C303.47 160.477 303.653 160.677 303.796 160.938C303.939 161.196 304.01 161.532 304.01 161.946V165.71H302.932V164.935H302.888C302.817 165.078 302.71 165.218 302.567 165.356C302.424 165.494 302.241 165.608 302.017 165.699C301.793 165.79 301.525 165.836 301.212 165.836ZM301.452 164.95C301.758 164.95 302.018 164.89 302.235 164.769C302.454 164.649 302.62 164.491 302.733 164.297C302.849 164.1 302.907 163.89 302.907 163.666V162.935C302.867 162.974 302.791 163.011 302.678 163.046C302.567 163.078 302.44 163.106 302.298 163.13C302.155 163.153 302.016 163.174 301.881 163.193C301.745 163.21 301.632 163.225 301.541 163.238C301.327 163.265 301.131 163.31 300.954 163.374C300.779 163.438 300.639 163.53 300.533 163.651C300.43 163.769 300.378 163.926 300.378 164.123C300.378 164.396 300.479 164.603 300.681 164.743C300.883 164.881 301.14 164.95 301.452 164.95Z" fill="#A6A6A6"/>
<g clip-path="url(#clip2_3388_45414)">
<rect x="76.8896" y="177.478" width="12.126" height="10.3937" rx="1.73229" fill="white" fill-opacity="0.15"/>
<path d="M84.6846 182.478C84.6846 181.521 85.4601 180.746 86.4169 180.746H89.0153V184.21H86.4169C85.4601 184.21 84.6846 183.435 84.6846 182.478Z" fill="white"/>
</g>
<path d="M97.7923 186.675L101.092 180.149V180.094H97.2756V179.116H102.273V180.127L98.9845 186.675H97.7923ZM102.999 186.745C102.798 186.745 102.624 186.674 102.479 186.531C102.334 186.386 102.261 186.211 102.261 186.007C102.261 185.805 102.334 185.633 102.479 185.49C102.624 185.345 102.798 185.272 102.999 185.272C103.201 185.272 103.375 185.345 103.52 185.49C103.665 185.633 103.738 185.805 103.738 186.007C103.738 186.142 103.703 186.266 103.634 186.38C103.568 186.49 103.479 186.579 103.368 186.645C103.258 186.712 103.135 186.745 102.999 186.745ZM105.201 186.675V185.848L107.759 183.198C108.032 182.91 108.257 182.658 108.434 182.441C108.614 182.222 108.748 182.014 108.837 181.818C108.925 181.621 108.969 181.411 108.969 181.19C108.969 180.939 108.91 180.723 108.792 180.54C108.674 180.356 108.513 180.214 108.309 180.116C108.105 180.015 107.875 179.965 107.619 179.965C107.348 179.965 107.112 180.02 106.91 180.131C106.708 180.241 106.553 180.398 106.445 180.599C106.337 180.801 106.282 181.037 106.282 181.308H105.194C105.194 180.848 105.299 180.446 105.511 180.101C105.723 179.757 106.013 179.49 106.382 179.3C106.751 179.108 107.171 179.012 107.641 179.012C108.116 179.012 108.534 179.107 108.896 179.297C109.26 179.484 109.544 179.739 109.748 180.064C109.953 180.387 110.055 180.751 110.055 181.157C110.055 181.437 110.002 181.712 109.896 181.98C109.793 182.248 109.612 182.547 109.353 182.877C109.095 183.204 108.736 183.601 108.276 184.069L106.773 185.641V185.697H110.176V186.675H105.201ZM114.207 186.778C113.7 186.778 113.247 186.691 112.849 186.516C112.453 186.341 112.139 186.099 111.907 185.789C111.679 185.476 111.556 185.115 111.538 184.704H112.697C112.712 184.928 112.787 185.122 112.923 185.287C113.06 185.449 113.24 185.575 113.461 185.663C113.683 185.752 113.929 185.796 114.2 185.796C114.497 185.796 114.761 185.745 114.989 185.641C115.221 185.538 115.402 185.394 115.532 185.209C115.662 185.022 115.728 184.807 115.728 184.564C115.728 184.31 115.662 184.087 115.532 183.896C115.404 183.701 115.216 183.549 114.967 183.438C114.721 183.327 114.423 183.272 114.074 183.272H113.436V182.342H114.074C114.355 182.342 114.601 182.291 114.812 182.19C115.026 182.089 115.194 181.949 115.314 181.77C115.435 181.587 115.495 181.375 115.495 181.131C115.495 180.897 115.442 180.694 115.336 180.522C115.233 180.347 115.085 180.211 114.893 180.112C114.704 180.014 114.48 179.965 114.222 179.965C113.976 179.965 113.746 180.01 113.532 180.101C113.32 180.19 113.148 180.318 113.015 180.485C112.882 180.65 112.811 180.848 112.801 181.079H111.697C111.709 180.671 111.83 180.312 112.059 180.002C112.29 179.692 112.595 179.449 112.974 179.274C113.353 179.1 113.774 179.012 114.236 179.012C114.721 179.012 115.14 179.107 115.491 179.297C115.846 179.484 116.119 179.733 116.311 180.046C116.505 180.358 116.601 180.7 116.599 181.072C116.601 181.495 116.483 181.854 116.244 182.15C116.008 182.445 115.693 182.643 115.299 182.744V182.803C115.801 182.879 116.19 183.079 116.466 183.401C116.744 183.723 116.882 184.123 116.879 184.6C116.882 185.016 116.766 185.389 116.532 185.719C116.301 186.049 115.985 186.308 115.584 186.498C115.183 186.685 114.724 186.778 114.207 186.778ZM125.989 179.116H127.134V184.087C127.134 184.616 127.009 185.085 126.761 185.494C126.512 185.9 126.163 186.22 125.713 186.453C125.262 186.685 124.734 186.8 124.129 186.8C123.526 186.8 123 186.685 122.549 186.453C122.099 186.22 121.75 185.9 121.501 185.494C121.253 185.085 121.128 184.616 121.128 184.087V179.116H122.269V183.995C122.269 184.337 122.344 184.641 122.494 184.907C122.647 185.173 122.862 185.382 123.14 185.534C123.418 185.684 123.748 185.759 124.129 185.759C124.513 185.759 124.844 185.684 125.122 185.534C125.403 185.382 125.617 185.173 125.764 184.907C125.914 184.641 125.989 184.337 125.989 183.995V179.116ZM132.915 181.101C132.875 180.752 132.713 180.481 132.427 180.289C132.142 180.095 131.783 179.998 131.35 179.998C131.04 179.998 130.771 180.047 130.545 180.145C130.319 180.241 130.143 180.374 130.017 180.544C129.894 180.711 129.833 180.902 129.833 181.116C129.833 181.296 129.874 181.451 129.958 181.581C130.044 181.712 130.156 181.821 130.294 181.91C130.434 181.996 130.584 182.068 130.744 182.128C130.904 182.184 131.058 182.231 131.206 182.268L131.944 182.46C132.185 182.519 132.432 182.599 132.686 182.7C132.939 182.801 133.174 182.933 133.391 183.098C133.607 183.263 133.782 183.467 133.915 183.711C134.05 183.955 134.118 184.246 134.118 184.586C134.118 185.014 134.007 185.394 133.786 185.726C133.567 186.058 133.248 186.32 132.83 186.512C132.414 186.704 131.911 186.8 131.32 186.8C130.754 186.8 130.264 186.71 129.851 186.531C129.438 186.351 129.114 186.097 128.88 185.767C128.647 185.435 128.517 185.041 128.493 184.586H129.637C129.659 184.859 129.748 185.086 129.903 185.269C130.06 185.448 130.261 185.582 130.504 185.671C130.75 185.757 131.02 185.8 131.313 185.8C131.635 185.8 131.922 185.75 132.173 185.649C132.426 185.545 132.625 185.403 132.771 185.221C132.916 185.036 132.988 184.821 132.988 184.575C132.988 184.351 132.924 184.167 132.796 184.025C132.671 183.882 132.5 183.764 132.283 183.67C132.069 183.577 131.827 183.494 131.556 183.423L130.663 183.179C130.058 183.015 129.578 182.772 129.224 182.452C128.872 182.132 128.696 181.709 128.696 181.183C128.696 180.747 128.814 180.367 129.05 180.042C129.286 179.717 129.606 179.465 130.01 179.286C130.413 179.103 130.869 179.012 131.375 179.012C131.887 179.012 132.339 179.102 132.73 179.282C133.124 179.461 133.434 179.709 133.66 180.024C133.887 180.336 134.005 180.695 134.014 181.101H132.915ZM137.928 186.675H135.481V179.116H138.005C138.746 179.116 139.382 179.267 139.914 179.57C140.445 179.87 140.852 180.302 141.135 180.865C141.421 181.426 141.563 182.099 141.563 182.884C141.563 183.672 141.419 184.348 141.132 184.914C140.846 185.48 140.433 185.916 139.891 186.221C139.35 186.523 138.696 186.675 137.928 186.675ZM136.621 185.678H137.865C138.441 185.678 138.919 185.57 139.301 185.353C139.682 185.134 139.968 184.818 140.157 184.405C140.347 183.989 140.441 183.482 140.441 182.884C140.441 182.291 140.347 181.788 140.157 181.375C139.97 180.961 139.691 180.647 139.319 180.433C138.948 180.219 138.486 180.112 137.935 180.112H136.621V185.678Z" fill="#A6A6A6"/>
<path d="M151.473 178.633L155.515 182.675L151.473 186.717" stroke="#A6A6A6" stroke-width="0.866145" stroke-linecap="round" stroke-linejoin="round"/>
<path d="M167.193 179.116V186.675H166.048V180.26H166.004L164.196 181.441V180.349L166.082 179.116H167.193ZM171.792 186.778C171.263 186.778 170.795 186.687 170.389 186.505C169.985 186.323 169.669 186.072 169.44 185.752C169.212 185.432 169.098 185.068 169.101 184.66C169.098 184.34 169.164 184.046 169.296 183.777C169.432 183.507 169.615 183.282 169.846 183.102C170.078 182.92 170.336 182.804 170.622 182.755V182.711C170.245 182.62 169.944 182.418 169.717 182.105C169.491 181.793 169.379 181.434 169.381 181.028C169.379 180.641 169.481 180.297 169.688 179.994C169.897 179.689 170.184 179.449 170.548 179.274C170.912 179.1 171.327 179.012 171.792 179.012C172.252 179.012 172.663 179.101 173.024 179.278C173.389 179.453 173.675 179.693 173.884 179.998C174.094 180.301 174.199 180.644 174.202 181.028C174.199 181.434 174.084 181.793 173.855 182.105C173.626 182.418 173.328 182.62 172.962 182.711V182.755C173.245 182.804 173.499 182.92 173.726 183.102C173.954 183.282 174.137 183.507 174.272 183.777C174.41 184.046 174.48 184.34 174.482 184.66C174.48 185.068 174.364 185.432 174.135 185.752C173.907 186.072 173.589 186.323 173.183 186.505C172.78 186.687 172.316 186.778 171.792 186.778ZM171.792 185.844C172.104 185.844 172.375 185.793 172.604 185.689C172.832 185.584 173.01 185.437 173.135 185.25C173.261 185.061 173.325 184.839 173.327 184.586C173.325 184.322 173.256 184.09 173.12 183.888C172.987 183.686 172.807 183.528 172.578 183.412C172.349 183.296 172.087 183.239 171.792 183.239C171.494 183.239 171.229 183.296 170.998 183.412C170.767 183.528 170.585 183.686 170.452 183.888C170.319 184.09 170.254 184.322 170.256 184.586C170.254 184.839 170.314 185.061 170.437 185.25C170.562 185.437 170.741 185.584 170.972 185.689C171.203 185.793 171.477 185.844 171.792 185.844ZM171.792 182.327C172.043 182.327 172.265 182.276 172.46 182.176C172.654 182.075 172.807 181.934 172.917 181.755C173.031 181.575 173.088 181.365 173.091 181.124C173.088 180.887 173.032 180.681 172.921 180.504C172.813 180.326 172.661 180.19 172.467 180.094C172.273 179.995 172.047 179.946 171.792 179.946C171.531 179.946 171.302 179.995 171.105 180.094C170.911 180.19 170.759 180.326 170.651 180.504C170.543 180.681 170.49 180.887 170.492 181.124C170.49 181.365 170.544 181.575 170.655 181.755C170.765 181.934 170.918 182.075 171.112 182.176C171.309 182.276 171.536 182.327 171.792 182.327ZM176.323 186.745C176.121 186.745 175.948 186.674 175.803 186.531C175.658 186.386 175.585 186.211 175.585 186.007C175.585 185.805 175.658 185.633 175.803 185.49C175.948 185.345 176.121 185.272 176.323 185.272C176.525 185.272 176.698 185.345 176.844 185.49C176.989 185.633 177.061 185.805 177.061 186.007C177.061 186.142 177.027 186.266 176.958 186.38C176.892 186.49 176.803 186.579 176.692 186.645C176.582 186.712 176.458 186.745 176.323 186.745ZM178.525 186.675V185.848L181.083 183.198C181.356 182.91 181.581 182.658 181.758 182.441C181.938 182.222 182.072 182.014 182.16 181.818C182.249 181.621 182.293 181.411 182.293 181.19C182.293 180.939 182.234 180.723 182.116 180.54C181.998 180.356 181.837 180.214 181.633 180.116C181.428 180.015 181.198 179.965 180.942 179.965C180.672 179.965 180.436 180.02 180.234 180.131C180.032 180.241 179.877 180.398 179.769 180.599C179.66 180.801 179.606 181.037 179.606 181.308H178.517C178.517 180.848 178.623 180.446 178.835 180.101C179.046 179.757 179.337 179.49 179.706 179.3C180.075 179.108 180.495 179.012 180.965 179.012C181.439 179.012 181.858 179.107 182.219 179.297C182.584 179.484 182.868 179.739 183.072 180.064C183.276 180.387 183.378 180.751 183.378 181.157C183.378 181.437 183.326 181.712 183.22 181.98C183.116 182.248 182.936 182.547 182.677 182.877C182.419 183.204 182.06 183.601 181.599 184.069L180.097 185.641V185.697H183.5V186.675H178.525ZM187.531 186.778C187.024 186.778 186.571 186.691 186.172 186.516C185.776 186.341 185.463 186.099 185.231 185.789C185.002 185.476 184.879 185.115 184.862 184.704H186.021C186.036 184.928 186.111 185.122 186.246 185.287C186.384 185.449 186.564 185.575 186.785 185.663C187.007 185.752 187.253 185.796 187.523 185.796C187.821 185.796 188.084 185.745 188.313 185.641C188.545 185.538 188.725 185.394 188.856 185.209C188.986 185.022 189.051 184.807 189.051 184.564C189.051 184.31 188.986 184.087 188.856 183.896C188.728 183.701 188.54 183.549 188.291 183.438C188.045 183.327 187.747 183.272 187.398 183.272H186.759V182.342H187.398C187.678 182.342 187.924 182.291 188.136 182.19C188.35 182.089 188.517 181.949 188.638 181.77C188.759 181.587 188.819 181.375 188.819 181.131C188.819 180.897 188.766 180.694 188.66 180.522C188.557 180.347 188.409 180.211 188.217 180.112C188.028 180.014 187.804 179.965 187.546 179.965C187.299 179.965 187.069 180.01 186.855 180.101C186.644 180.19 186.471 180.318 186.339 180.485C186.206 180.65 186.134 180.848 186.124 181.079H185.021C185.033 180.671 185.154 180.312 185.383 180.002C185.614 179.692 185.919 179.449 186.298 179.274C186.677 179.1 187.098 179.012 187.56 179.012C188.045 179.012 188.463 179.107 188.815 179.297C189.17 179.484 189.443 179.733 189.635 180.046C189.829 180.358 189.925 180.7 189.922 181.072C189.925 181.495 189.807 181.854 189.568 182.15C189.332 182.445 189.017 182.643 188.623 182.744V182.803C189.125 182.879 189.514 183.079 189.79 183.401C190.068 183.723 190.205 184.123 190.203 184.6C190.205 185.016 190.09 185.389 189.856 185.719C189.625 186.049 189.309 186.308 188.907 186.498C188.506 186.685 188.047 186.778 187.531 186.778ZM199.313 179.116H200.457V184.087C200.457 184.616 200.333 185.085 200.085 185.494C199.836 185.9 199.487 186.22 199.036 186.453C198.586 186.685 198.058 186.8 197.453 186.8C196.85 186.8 196.324 186.685 195.873 186.453C195.423 186.22 195.074 185.9 194.825 185.494C194.576 185.085 194.452 184.616 194.452 184.087V179.116H195.593V183.995C195.593 184.337 195.668 184.641 195.818 184.907C195.97 185.173 196.186 185.382 196.464 185.534C196.742 185.684 197.072 185.759 197.453 185.759C197.837 185.759 198.168 185.684 198.446 185.534C198.726 185.382 198.94 185.173 199.088 184.907C199.238 184.641 199.313 184.337 199.313 183.995V179.116ZM206.238 181.101C206.199 180.752 206.037 180.481 205.751 180.289C205.466 180.095 205.106 179.998 204.673 179.998C204.363 179.998 204.095 180.047 203.869 180.145C203.642 180.241 203.466 180.374 203.341 180.544C203.218 180.711 203.156 180.902 203.156 181.116C203.156 181.296 203.198 181.451 203.282 181.581C203.368 181.712 203.48 181.821 203.618 181.91C203.758 181.996 203.908 182.068 204.068 182.128C204.228 182.184 204.382 182.231 204.529 182.268L205.268 182.46C205.509 182.519 205.756 182.599 206.01 182.7C206.263 182.801 206.498 182.933 206.715 183.098C206.931 183.263 207.106 183.467 207.239 183.711C207.374 183.955 207.442 184.246 207.442 184.586C207.442 185.014 207.331 185.394 207.109 185.726C206.89 186.058 206.572 186.32 206.153 186.512C205.738 186.704 205.234 186.8 204.644 186.8C204.078 186.8 203.588 186.71 203.175 186.531C202.761 186.351 202.438 186.097 202.204 185.767C201.97 185.435 201.841 185.041 201.817 184.586H202.961C202.983 184.859 203.072 185.086 203.227 185.269C203.384 185.448 203.585 185.582 203.828 185.671C204.074 185.757 204.344 185.8 204.637 185.8C204.959 185.8 205.246 185.75 205.496 185.649C205.75 185.545 205.949 185.403 206.094 185.221C206.24 185.036 206.312 184.821 206.312 184.575C206.312 184.351 206.248 184.167 206.12 184.025C205.995 183.882 205.824 183.764 205.607 183.67C205.393 183.577 205.151 183.494 204.88 183.423L203.987 183.179C203.382 183.015 202.902 182.772 202.547 182.452C202.196 182.132 202.02 181.709 202.02 181.183C202.02 180.747 202.138 180.367 202.374 180.042C202.61 179.717 202.93 179.465 203.334 179.286C203.737 179.103 204.192 179.012 204.699 179.012C205.211 179.012 205.663 179.102 206.054 179.282C206.448 179.461 206.758 179.709 206.984 180.024C207.21 180.336 207.328 180.695 207.338 181.101H206.238ZM211.252 186.675H208.805V179.116H211.329C212.07 179.116 212.706 179.267 213.237 179.57C213.769 179.87 214.176 180.302 214.459 180.865C214.744 181.426 214.887 182.099 214.887 182.884C214.887 183.672 214.743 184.348 214.455 184.914C214.17 185.48 213.757 185.916 213.215 186.221C212.674 186.523 212.019 186.675 211.252 186.675ZM209.945 185.678H211.189C211.765 185.678 212.243 185.57 212.625 185.353C213.006 185.134 213.291 184.818 213.481 184.405C213.67 183.989 213.765 183.482 213.765 182.884C213.765 182.291 213.67 181.788 213.481 181.375C213.294 180.961 213.015 180.647 212.643 180.433C212.272 180.219 211.81 180.112 211.259 180.112H209.945V185.678Z" fill="#A6A6A6"/>
<path d="M50 232.197C50 227.587 53.7374 223.849 58.3478 223.849H281.652C286.263 223.849 290 227.587 290 232.197V269.545C290 274.155 286.263 277.893 281.652 277.893H58.3478C53.7374 277.893 50 274.155 50 269.545V232.197Z" fill="url(#paint2_linear_3388_45414)"/>
<path fill-rule="evenodd" clip-rule="evenodd" d="M70.6788 239.163C70.6975 239.163 70.7161 239.165 70.7345 239.168C70.7412 239.17 70.7475 239.173 70.754 239.174C70.7701 239.179 70.7864 239.182 70.8019 239.189C70.9269 239.242 71.0146 239.365 71.0147 239.509V245.464C71.0147 245.656 70.859 245.812 70.6671 245.812C70.475 245.812 70.3185 245.656 70.3185 245.464V240.349L62.9718 247.696C62.836 247.831 62.6154 247.831 62.4796 247.696C62.3441 247.56 62.344 247.339 62.4796 247.204L69.8263 239.857H64.711C64.519 239.857 64.3634 239.701 64.3634 239.509C64.3636 239.317 64.5191 239.162 64.711 239.162H70.6671C70.671 239.162 70.6749 239.162 70.6788 239.163Z" fill="#D35B5D"/>
<path d="M79.4155 242.418V243.446H75.8266V242.418H79.4155ZM80.8048 245.398V244.41L84.3028 238.885H85.0815V240.339H84.5874L82.0854 244.3V244.363H86.8799V245.398H80.8048ZM84.6428 246.979V245.098L84.6507 244.647V238.885H85.8088V246.979H84.6428Z" fill="white"/>
<path d="M96.921 238.885H98.1463V244.209C98.1463 244.775 98.0133 245.277 97.7471 245.715C97.481 246.149 97.1068 246.492 96.6246 246.742C96.1424 246.99 95.5772 247.114 94.9289 247.114C94.2834 247.114 93.7195 246.99 93.2372 246.742C92.755 246.492 92.3808 246.149 92.1147 245.715C91.8486 245.277 91.7155 244.775 91.7155 244.209V238.885H92.9368V244.11C92.9368 244.476 93.0172 244.802 93.178 245.086C93.3413 245.371 93.5719 245.595 93.8697 245.758C94.1674 245.919 94.5205 245.999 94.9289 245.999C95.34 245.999 95.6944 245.919 95.9922 245.758C96.2926 245.595 96.5218 245.371 96.6799 245.086C96.8407 244.802 96.921 244.476 96.921 244.11V238.885ZM104.337 241.011C104.295 240.637 104.121 240.347 103.815 240.142C103.51 239.933 103.125 239.829 102.661 239.829C102.329 239.829 102.042 239.882 101.799 239.987C101.557 240.09 101.369 240.232 101.234 240.414C101.103 240.593 101.037 240.798 101.037 241.027C101.037 241.219 101.081 241.385 101.171 241.525C101.263 241.665 101.383 241.782 101.531 241.877C101.681 241.969 101.842 242.047 102.013 242.11C102.184 242.171 102.349 242.221 102.507 242.26L103.298 242.466C103.556 242.529 103.821 242.615 104.092 242.723C104.363 242.831 104.615 242.973 104.847 243.149C105.079 243.326 105.266 243.545 105.408 243.806C105.553 244.066 105.626 244.379 105.626 244.742C105.626 245.201 105.507 245.608 105.27 245.964C105.035 246.319 104.694 246.6 104.246 246.806C103.801 247.011 103.262 247.114 102.63 247.114C102.023 247.114 101.499 247.018 101.056 246.825C100.614 246.633 100.267 246.36 100.017 246.007C99.7666 245.651 99.6282 245.23 99.6019 244.742H100.827C100.851 245.035 100.946 245.279 101.112 245.474C101.28 245.666 101.495 245.81 101.756 245.904C102.02 245.997 102.308 246.043 102.622 246.043C102.967 246.043 103.274 245.989 103.543 245.881C103.814 245.77 104.027 245.617 104.183 245.422C104.338 245.225 104.416 244.994 104.416 244.73C104.416 244.491 104.348 244.294 104.211 244.142C104.076 243.989 103.893 243.862 103.661 243.762C103.432 243.662 103.172 243.574 102.882 243.497L101.926 243.236C101.278 243.06 100.764 242.8 100.384 242.458C100.008 242.115 99.8193 241.662 99.8193 241.098C99.8193 240.632 99.9457 240.225 100.199 239.877C100.452 239.529 100.794 239.259 101.226 239.066C101.659 238.871 102.146 238.774 102.689 238.774C103.237 238.774 103.72 238.87 104.139 239.062C104.561 239.255 104.893 239.52 105.135 239.857C105.378 240.192 105.504 240.576 105.515 241.011H104.337ZM109.706 246.979H107.085V238.885H109.789C110.582 238.885 111.263 239.047 111.832 239.371C112.401 239.692 112.837 240.155 113.14 240.758C113.446 241.359 113.599 242.08 113.599 242.92C113.599 243.763 113.445 244.488 113.136 245.094C112.831 245.7 112.388 246.167 111.808 246.493C111.229 246.817 110.528 246.979 109.706 246.979ZM108.306 245.912H109.638C110.255 245.912 110.768 245.796 111.176 245.564C111.584 245.33 111.89 244.991 112.093 244.549C112.296 244.103 112.397 243.561 112.397 242.92C112.397 242.285 112.296 241.746 112.093 241.304C111.893 240.861 111.594 240.525 111.196 240.296C110.798 240.066 110.304 239.952 109.714 239.952H108.306V245.912Z" fill="#A6A6A6"/>
<path d="M242.453 240.408V246.479H241.537V240.408H242.453ZM245.753 246.479H243.787V240.408H245.815C246.41 240.408 246.921 240.53 247.347 240.773C247.774 241.014 248.101 241.361 248.329 241.813C248.558 242.264 248.672 242.805 248.672 243.435C248.672 244.067 248.557 244.611 248.326 245.065C248.096 245.52 247.764 245.87 247.33 246.115C246.895 246.358 246.369 246.479 245.753 246.479ZM244.703 245.679H245.702C246.165 245.679 246.549 245.592 246.855 245.418C247.162 245.242 247.391 244.988 247.543 244.656C247.695 244.322 247.771 243.915 247.771 243.435C247.771 242.959 247.695 242.555 247.543 242.223C247.393 241.891 247.169 241.639 246.87 241.467C246.572 241.295 246.201 241.209 245.758 241.209H244.703V245.679ZM251.81 245.294V244.553L254.434 240.408H255.018V241.499H254.647L252.771 244.47V244.517H256.367V245.294H251.81ZM254.689 246.479V245.068L254.695 244.73V240.408H255.563V246.479H254.689ZM259.513 246.562C259.106 246.562 258.743 246.492 258.422 246.352C258.104 246.212 257.852 246.017 257.667 245.768C257.483 245.517 257.384 245.227 257.37 244.896H258.301C258.313 245.076 258.373 245.232 258.482 245.365C258.592 245.495 258.737 245.596 258.915 245.667C259.092 245.738 259.29 245.774 259.507 245.774C259.747 245.774 259.958 245.732 260.142 245.649C260.328 245.566 260.473 245.451 260.578 245.303C260.682 245.152 260.735 244.979 260.735 244.784C260.735 244.58 260.682 244.401 260.578 244.247C260.475 244.091 260.324 243.969 260.124 243.88C259.926 243.791 259.687 243.746 259.407 243.746H258.894V242.999H259.407C259.632 242.999 259.83 242.959 260 242.878C260.172 242.797 260.306 242.684 260.403 242.54C260.5 242.394 260.548 242.223 260.548 242.027C260.548 241.839 260.505 241.676 260.421 241.538C260.338 241.397 260.219 241.288 260.065 241.209C259.913 241.13 259.733 241.09 259.525 241.09C259.328 241.09 259.143 241.127 258.971 241.2C258.801 241.271 258.663 241.374 258.556 241.508C258.449 241.641 258.392 241.8 258.384 241.985H257.498C257.507 241.657 257.604 241.369 257.788 241.12C257.974 240.871 258.219 240.676 258.523 240.536C258.828 240.395 259.166 240.325 259.537 240.325C259.926 240.325 260.262 240.401 260.545 240.554C260.83 240.704 261.049 240.904 261.203 241.155C261.359 241.406 261.436 241.681 261.434 241.979C261.436 242.319 261.341 242.608 261.15 242.845C260.96 243.082 260.707 243.241 260.391 243.322V243.37C260.794 243.431 261.106 243.591 261.328 243.85C261.551 244.109 261.662 244.43 261.66 244.813C261.662 245.147 261.569 245.447 261.381 245.712C261.195 245.977 260.941 246.185 260.619 246.337C260.297 246.487 259.928 246.562 259.513 246.562ZM264.784 246.562C264.413 246.562 264.079 246.491 263.782 246.349C263.488 246.205 263.253 246.007 263.077 245.756C262.901 245.505 262.807 245.219 262.795 244.896H263.684C263.706 245.157 263.822 245.372 264.031 245.54C264.241 245.708 264.492 245.792 264.784 245.792C265.017 245.792 265.224 245.738 265.404 245.632C265.586 245.523 265.728 245.374 265.831 245.184C265.935 244.994 265.988 244.778 265.988 244.535C265.988 244.288 265.934 244.067 265.828 243.874C265.721 243.68 265.574 243.528 265.386 243.417C265.2 243.307 264.987 243.25 264.746 243.248C264.562 243.248 264.377 243.28 264.191 243.343C264.005 243.406 263.855 243.489 263.741 243.592L262.902 243.468L263.243 240.408H266.581V241.194H264.005L263.812 242.893H263.847C263.966 242.778 264.123 242.682 264.319 242.605C264.516 242.528 264.728 242.489 264.953 242.489C265.323 242.489 265.652 242.577 265.94 242.753C266.231 242.929 266.459 243.169 266.625 243.474C266.793 243.776 266.876 244.124 266.874 244.517C266.876 244.91 266.787 245.261 266.607 245.569C266.429 245.878 266.182 246.121 265.866 246.299C265.552 246.475 265.191 246.562 264.784 246.562ZM270.07 246.562C269.663 246.562 269.3 246.492 268.98 246.352C268.661 246.212 268.409 246.017 268.224 245.768C268.04 245.517 267.941 245.227 267.927 244.896H268.858C268.87 245.076 268.93 245.232 269.039 245.365C269.15 245.495 269.294 245.596 269.472 245.667C269.65 245.738 269.847 245.774 270.065 245.774C270.304 245.774 270.515 245.732 270.699 245.649C270.885 245.566 271.03 245.451 271.135 245.303C271.239 245.152 271.292 244.979 271.292 244.784C271.292 244.58 271.239 244.401 271.135 244.247C271.032 244.091 270.881 243.969 270.681 243.88C270.484 243.791 270.244 243.746 269.964 243.746H269.451V242.999H269.964C270.189 242.999 270.387 242.959 270.557 242.878C270.729 242.797 270.863 242.684 270.96 242.54C271.057 242.394 271.105 242.223 271.105 242.027C271.105 241.839 271.063 241.676 270.978 241.538C270.895 241.397 270.776 241.288 270.622 241.209C270.47 241.13 270.29 241.09 270.082 241.09C269.885 241.09 269.7 241.127 269.528 241.2C269.358 241.271 269.22 241.374 269.113 241.508C269.006 241.641 268.949 241.8 268.941 241.985H268.055C268.065 241.657 268.161 241.369 268.345 241.12C268.531 240.871 268.776 240.676 269.08 240.536C269.385 240.395 269.723 240.325 270.094 240.325C270.484 240.325 270.819 240.401 271.102 240.554C271.387 240.704 271.606 240.904 271.76 241.155C271.916 241.406 271.993 241.681 271.991 241.979C271.993 242.319 271.899 242.608 271.707 242.845C271.517 243.082 271.264 243.241 270.948 243.322V243.37C271.351 243.431 271.663 243.591 271.885 243.85C272.108 244.109 272.219 244.43 272.217 244.813C272.219 245.147 272.126 245.447 271.938 245.712C271.752 245.977 271.498 246.185 271.176 246.337C270.854 246.487 270.485 246.562 270.07 246.562ZM273.21 245.294V244.553L275.833 240.408H276.417V241.499H276.047L274.17 244.47V244.517H277.766V245.294H273.21ZM276.088 246.479V245.068L276.094 244.73V240.408H276.963V246.479H276.088Z" fill="#A6A6A6"/>
<g clip-path="url(#clip3_3388_45414)">
<rect x="61.8262" y="256.588" width="9.73913" height="8.34783" rx="1.3913" fill="white" fill-opacity="0.15"/>
<path d="M68.0869 260.588C68.0869 259.82 68.7098 259.197 69.4782 259.197H71.5652V261.979H69.4782C68.7098 261.979 68.0869 261.356 68.0869 260.588Z" fill="white"/>
</g>
<path d="M80.7135 257.691V263.762H79.7946V258.61H79.759L78.3064 259.559V258.681L79.8212 257.691H80.7135ZM84.6592 257.691V263.762H83.7402V258.61H83.7046L82.2521 259.559V258.681L83.7669 257.691H84.6592ZM86.5468 263.819C86.3847 263.819 86.2454 263.761 86.1288 263.647C86.0122 263.53 85.9539 263.39 85.9539 263.226C85.9539 263.064 86.0122 262.925 86.1288 262.811C86.2454 262.694 86.3847 262.636 86.5468 262.636C86.7088 262.636 86.8482 262.694 86.9648 262.811C87.0814 262.925 87.1397 263.064 87.1397 263.226C87.1397 263.334 87.112 263.434 87.0567 263.525C87.0033 263.614 86.9322 263.685 86.8432 263.738C86.7543 263.792 86.6555 263.819 86.5468 263.819ZM88.3151 263.762V263.098L90.3694 260.97C90.5888 260.738 90.7696 260.536 90.9119 260.362C91.0562 260.186 91.1639 260.019 91.235 259.861C91.3062 259.703 91.3417 259.535 91.3417 259.357C91.3417 259.155 91.2943 258.982 91.1994 258.835C91.1046 258.687 90.9751 258.573 90.8111 258.494C90.6471 258.413 90.4623 258.373 90.2568 258.373C90.0394 258.373 89.8496 258.417 89.6876 258.506C89.5255 258.595 89.401 258.721 89.3141 258.883C89.2271 259.045 89.1836 259.235 89.1836 259.452H88.3091C88.3091 259.082 88.3941 258.759 88.5641 258.483C88.734 258.206 88.9672 257.991 89.2637 257.839C89.5601 257.685 89.8971 257.608 90.2745 257.608C90.656 257.608 90.9919 257.684 91.2824 257.836C91.5749 257.987 91.8032 258.192 91.9672 258.453C92.1313 258.712 92.2133 259.004 92.2133 259.33C92.2133 259.556 92.1708 259.776 92.0858 259.991C92.0028 260.207 91.8575 260.447 91.65 260.712C91.4425 260.975 91.154 261.294 90.7844 261.669L89.5779 262.932V262.977H92.3111V263.762H88.3151ZM95.5483 263.845C95.1411 263.845 94.7775 263.775 94.4573 263.635C94.1392 263.494 93.8872 263.3 93.7014 263.051C93.5176 262.8 93.4188 262.509 93.405 262.179H94.3358C94.3477 262.359 94.4079 262.515 94.5166 262.648C94.6273 262.778 94.7716 262.879 94.9494 262.95C95.1273 263.021 95.3249 263.057 95.5423 263.057C95.7815 263.057 95.9929 263.015 96.1767 262.932C96.3625 262.849 96.5077 262.734 96.6125 262.585C96.7172 262.435 96.7696 262.262 96.7696 262.067C96.7696 261.863 96.7172 261.684 96.6125 261.53C96.5097 261.374 96.3585 261.251 96.1589 261.162C95.9613 261.073 95.7222 261.029 95.4415 261.029H94.9287V260.282H95.4415C95.6668 260.282 95.8645 260.241 96.0344 260.16C96.2064 260.079 96.3407 259.967 96.4376 259.822C96.5344 259.676 96.5828 259.505 96.5828 259.31C96.5828 259.122 96.5404 258.959 96.4554 258.821C96.3724 258.68 96.2538 258.571 96.0996 258.491C95.9475 258.412 95.7676 258.373 95.5601 258.373C95.3625 258.373 95.1777 258.409 95.0058 258.483C94.8358 258.554 94.6975 258.656 94.5907 258.791C94.484 258.923 94.4267 259.082 94.4188 259.268H93.5324C93.5423 258.94 93.6392 258.652 93.823 258.403C94.0087 258.154 94.2538 257.959 94.5581 257.819C94.8625 257.678 95.2004 257.608 95.572 257.608C95.9613 257.608 96.2973 257.684 96.5799 257.836C96.8645 257.987 97.0838 258.187 97.238 258.438C97.3941 258.689 97.4712 258.964 97.4692 259.262C97.4712 259.602 97.3763 259.891 97.1846 260.128C96.9949 260.365 96.7419 260.524 96.4257 260.605V260.653C96.8289 260.714 97.1411 260.874 97.3625 261.133C97.5858 261.392 97.6965 261.713 97.6945 262.096C97.6965 262.43 97.6036 262.73 97.4158 262.994C97.2301 263.259 96.9761 263.468 96.654 263.62C96.3319 263.77 95.9633 263.845 95.5483 263.845ZM105.011 257.691H105.93V261.684C105.93 262.109 105.831 262.486 105.631 262.814C105.431 263.14 105.151 263.397 104.789 263.584C104.427 263.77 104.004 263.863 103.517 263.863C103.033 263.863 102.61 263.77 102.249 263.584C101.887 263.397 101.606 263.14 101.407 262.814C101.207 262.486 101.107 262.109 101.107 261.684V257.691H102.023V261.61C102.023 261.885 102.084 262.129 102.204 262.342C102.327 262.556 102.5 262.724 102.723 262.846C102.946 262.967 103.211 263.027 103.517 263.027C103.826 263.027 104.091 262.967 104.315 262.846C104.54 262.724 104.712 262.556 104.831 262.342C104.951 262.129 105.011 261.885 105.011 261.61V257.691ZM110.573 259.286C110.542 259.005 110.411 258.788 110.182 258.634C109.953 258.478 109.664 258.4 109.317 258.4C109.068 258.4 108.852 258.439 108.67 258.518C108.488 258.595 108.347 258.702 108.246 258.838C108.148 258.973 108.098 259.126 108.098 259.298C108.098 259.442 108.132 259.567 108.199 259.671C108.268 259.776 108.358 259.864 108.469 259.935C108.581 260.004 108.702 260.063 108.83 260.11C108.959 260.155 109.082 260.193 109.201 260.223L109.794 260.377C109.987 260.424 110.186 260.488 110.39 260.57C110.593 260.651 110.782 260.757 110.956 260.89C111.13 261.022 111.27 261.186 111.377 261.382C111.486 261.577 111.54 261.812 111.54 262.084C111.54 262.428 111.451 262.734 111.273 263C111.097 263.267 110.841 263.478 110.505 263.632C110.171 263.786 109.767 263.863 109.293 263.863C108.838 263.863 108.445 263.791 108.113 263.647C107.781 263.502 107.521 263.298 107.333 263.033C107.146 262.766 107.042 262.45 107.022 262.084H107.941C107.959 262.304 108.03 262.487 108.154 262.633C108.281 262.777 108.442 262.885 108.638 262.956C108.835 263.025 109.052 263.06 109.287 263.06C109.546 263.06 109.776 263.019 109.978 262.938C110.181 262.855 110.341 262.74 110.458 262.594C110.574 262.446 110.633 262.273 110.633 262.075C110.633 261.896 110.581 261.748 110.479 261.634C110.378 261.519 110.24 261.424 110.067 261.349C109.895 261.274 109.7 261.208 109.483 261.151L108.765 260.955C108.279 260.822 107.894 260.628 107.609 260.371C107.326 260.114 107.185 259.774 107.185 259.351C107.185 259.001 107.28 258.696 107.47 258.435C107.659 258.174 107.916 257.972 108.24 257.827C108.565 257.681 108.93 257.608 109.337 257.608C109.748 257.608 110.111 257.68 110.425 257.824C110.741 257.969 110.99 258.167 111.172 258.42C111.354 258.671 111.449 258.96 111.457 259.286H110.573ZM114.6 263.762H112.634V257.691H114.662C115.257 257.691 115.768 257.813 116.195 258.056C116.622 258.297 116.949 258.644 117.176 259.096C117.405 259.547 117.52 260.087 117.52 260.718C117.52 261.35 117.404 261.894 117.173 262.348C116.944 262.803 116.612 263.153 116.177 263.398C115.742 263.641 115.216 263.762 114.6 263.762ZM113.55 262.962H114.549C115.012 262.962 115.396 262.875 115.703 262.701C116.009 262.525 116.238 262.271 116.39 261.939C116.543 261.605 116.619 261.198 116.619 260.718C116.619 260.241 116.543 259.837 116.39 259.505C116.24 259.173 116.016 258.921 115.717 258.749C115.419 258.577 115.049 258.491 114.606 258.491H113.55V262.962Z" fill="#A6A6A6"/>
<path d="M125.782 257.516L129.029 260.762L125.782 264.008" stroke="#A6A6A6" stroke-width="0.695652" stroke-linecap="round" stroke-linejoin="round"/>
<path d="M136.31 263.762L138.96 258.521V258.477H135.895V257.691H139.909V258.503L137.268 263.762H136.31ZM140.492 263.819C140.33 263.819 140.191 263.761 140.074 263.647C139.958 263.53 139.899 263.39 139.899 263.226C139.899 263.064 139.958 262.925 140.074 262.811C140.191 262.694 140.33 262.636 140.492 262.636C140.654 262.636 140.793 262.694 140.91 262.811C141.027 262.925 141.085 263.064 141.085 263.226C141.085 263.334 141.057 263.434 141.002 263.525C140.949 263.614 140.877 263.685 140.789 263.738C140.7 263.792 140.601 263.819 140.492 263.819ZM142.26 263.762V263.098L144.315 260.97C144.534 260.738 144.715 260.536 144.857 260.362C145.001 260.186 145.109 260.019 145.18 259.861C145.251 259.703 145.287 259.535 145.287 259.357C145.287 259.155 145.24 258.982 145.145 258.835C145.05 258.687 144.92 258.573 144.756 258.494C144.592 258.413 144.408 258.373 144.202 258.373C143.985 258.373 143.795 258.417 143.633 258.506C143.471 258.595 143.346 258.721 143.259 258.883C143.172 259.045 143.129 259.235 143.129 259.452H142.254C142.254 259.082 142.339 258.759 142.509 258.483C142.679 258.206 142.913 257.991 143.209 257.839C143.505 257.685 143.842 257.608 144.22 257.608C144.601 257.608 144.937 257.684 145.228 257.836C145.52 257.987 145.749 258.192 145.913 258.453C146.077 258.712 146.159 259.004 146.159 259.33C146.159 259.556 146.116 259.776 146.031 259.991C145.948 260.207 145.803 260.447 145.595 260.712C145.388 260.975 145.099 261.294 144.73 261.669L143.523 262.932V262.977H146.256V263.762H142.26ZM149.494 263.845C149.086 263.845 148.723 263.775 148.403 263.635C148.084 263.494 147.833 263.3 147.647 263.051C147.463 262.8 147.364 262.509 147.35 262.179H148.281C148.293 262.359 148.353 262.515 148.462 262.648C148.573 262.778 148.717 262.879 148.895 262.95C149.073 263.021 149.27 263.057 149.488 263.057C149.727 263.057 149.938 263.015 150.122 262.932C150.308 262.849 150.453 262.734 150.558 262.585C150.663 262.435 150.715 262.262 150.715 262.067C150.715 261.863 150.663 261.684 150.558 261.53C150.455 261.374 150.304 261.251 150.104 261.162C149.907 261.073 149.667 261.029 149.387 261.029H148.874V260.282H149.387C149.612 260.282 149.81 260.241 149.98 260.16C150.152 260.079 150.286 259.967 150.383 259.822C150.48 259.676 150.528 259.505 150.528 259.31C150.528 259.122 150.486 258.959 150.401 258.821C150.318 258.68 150.199 258.571 150.045 258.491C149.893 258.412 149.713 258.373 149.505 258.373C149.308 258.373 149.123 258.409 148.951 258.483C148.781 258.554 148.643 258.656 148.536 258.791C148.429 258.923 148.372 259.082 148.364 259.268H147.478C147.488 258.94 147.584 258.652 147.768 258.403C147.954 258.154 148.199 257.959 148.503 257.819C148.808 257.678 149.146 257.608 149.517 257.608C149.907 257.608 150.243 257.684 150.525 257.836C150.81 257.987 151.029 258.187 151.183 258.438C151.339 258.689 151.416 258.964 151.415 259.262C151.416 259.602 151.322 259.891 151.13 260.128C150.94 260.365 150.687 260.524 150.371 260.605V260.653C150.774 260.714 151.086 260.874 151.308 261.133C151.531 261.392 151.642 261.713 151.64 262.096C151.642 262.43 151.549 262.73 151.361 262.994C151.175 263.259 150.921 263.468 150.599 263.62C150.277 263.77 149.909 263.845 149.494 263.845ZM158.957 257.691H159.876V261.684C159.876 262.109 159.776 262.486 159.576 262.814C159.377 263.14 159.096 263.397 158.734 263.584C158.373 263.77 157.949 263.863 157.463 263.863C156.978 263.863 156.556 263.77 156.194 263.584C155.832 263.397 155.552 263.14 155.352 262.814C155.152 262.486 155.053 262.109 155.053 261.684V257.691H155.969V261.61C155.969 261.885 156.029 262.129 156.149 262.342C156.272 262.556 156.445 262.724 156.668 262.846C156.892 262.967 157.156 263.027 157.463 263.027C157.771 263.027 158.037 262.967 158.26 262.846C158.485 262.724 158.657 262.556 158.776 262.342C158.896 262.129 158.957 261.885 158.957 261.61V257.691ZM164.519 259.286C164.487 259.005 164.357 258.788 164.127 258.634C163.898 258.478 163.61 258.4 163.262 258.4C163.013 258.4 162.797 258.439 162.616 258.518C162.434 258.595 162.292 258.702 162.192 258.838C162.093 258.973 162.043 259.126 162.043 259.298C162.043 259.442 162.077 259.567 162.144 259.671C162.213 259.776 162.303 259.864 162.414 259.935C162.527 260.004 162.647 260.063 162.776 260.11C162.904 260.155 163.028 260.193 163.146 260.223L163.739 260.377C163.933 260.424 164.131 260.488 164.335 260.57C164.539 260.651 164.727 260.757 164.901 260.89C165.075 261.022 165.215 261.186 165.322 261.382C165.431 261.577 165.485 261.812 165.485 262.084C165.485 262.428 165.396 262.734 165.218 263C165.042 263.267 164.787 263.478 164.451 263.632C164.117 263.786 163.712 263.863 163.238 263.863C162.784 263.863 162.39 263.791 162.058 263.647C161.726 263.502 161.466 263.298 161.279 263.033C161.091 262.766 160.987 262.45 160.967 262.084H161.886C161.904 262.304 161.975 262.487 162.1 262.633C162.226 262.777 162.387 262.885 162.583 262.956C162.781 263.025 162.997 263.06 163.232 263.06C163.491 263.06 163.721 263.019 163.923 262.938C164.126 262.855 164.287 262.74 164.403 262.594C164.52 262.446 164.578 262.273 164.578 262.075C164.578 261.896 164.527 261.748 164.424 261.634C164.323 261.519 164.186 261.424 164.012 261.349C163.84 261.274 163.645 261.208 163.428 261.151L162.71 260.955C162.224 260.822 161.839 260.628 161.554 260.371C161.272 260.114 161.13 259.774 161.13 259.351C161.13 259.001 161.225 258.696 161.415 258.435C161.605 258.174 161.862 257.972 162.186 257.827C162.51 257.681 162.875 257.608 163.283 257.608C163.694 257.608 164.056 257.68 164.371 257.824C164.687 257.969 164.936 258.167 165.118 258.42C165.299 258.671 165.394 258.96 165.402 259.286H164.519ZM168.545 263.762H166.58V257.691H168.607C169.202 257.691 169.713 257.813 170.14 258.056C170.567 258.297 170.894 258.644 171.121 259.096C171.351 259.547 171.465 260.087 171.465 260.718C171.465 261.35 171.35 261.894 171.118 262.348C170.889 262.803 170.557 263.153 170.122 263.398C169.687 263.641 169.162 263.762 168.545 263.762ZM167.496 262.962H168.495C168.957 262.962 169.342 262.875 169.648 262.701C169.954 262.525 170.184 262.271 170.336 261.939C170.488 261.605 170.564 261.198 170.564 260.718C170.564 260.241 170.488 259.837 170.336 259.505C170.186 259.173 169.961 258.921 169.663 258.749C169.364 258.577 168.994 258.491 168.551 258.491H167.496V262.962Z" fill="#A6A6A6"/>
<defs>
<linearGradient id="paint0_linear_3388_45414" x1="170" y1="62.9927" x2="170" y2="114.334" gradientUnits="userSpaceOnUse">
<stop stop-color="white" stop-opacity="0.15"/>
<stop offset="1" stop-color="white" stop-opacity="0.05"/>
</linearGradient>
<linearGradient id="paint1_linear_3388_45414" x1="170" y1="137.036" x2="170" y2="200.508" gradientUnits="userSpaceOnUse">
<stop stop-color="white" stop-opacity="0.15"/>
<stop offset="1" stop-color="white" stop-opacity="0.05"/>
</linearGradient>
<linearGradient id="paint2_linear_3388_45414" x1="170" y1="223.849" x2="170" y2="275.19" gradientUnits="userSpaceOnUse">
<stop stop-color="white" stop-opacity="0.15"/>
<stop offset="1" stop-color="white" stop-opacity="0.05"/>
</linearGradient>
<clipPath id="clip0_3388_45414">
<rect x="61.8262" y="95.7314" width="9.73913" height="8.34783" rx="1.3913" fill="white"/>
</clipPath>
<clipPath id="clip1_3388_45414">
<rect x="41.377" y="162.647" width="20.7875" height="15.5906" rx="2.59843" fill="white"/>
</clipPath>
<clipPath id="clip2_3388_45414">
<rect x="76.8896" y="177.478" width="12.126" height="10.3937" rx="1.73229" fill="white"/>
</clipPath>
<clipPath id="clip3_3388_45414">
<rect x="61.8262" y="256.588" width="9.73913" height="8.34783" rx="1.3913" fill="white"/>
</clipPath>
</defs>
</svg>
