<svg width="160" height="160" viewBox="0 0 160 160" fill="none" xmlns="http://www.w3.org/2000/svg">
<g clip-path="url(#clip0_3378_43274)">
<circle cx="80" cy="80" r="48" fill="#589050"/>
<foreignObject x="-9.6" y="-9.6" width="179.2" height="179.2"><div xmlns="http://www.w3.org/1999/xhtml" style="backdrop-filter:blur(4.8px);clip-path:url(#bgblur_1_3378_43274_clip_path);height:100%;width:100%"></div></foreignObject><path data-figma-bg-blur-radius="9.6" d="M80 0C64.1775 -1.88681e-07 48.7103 4.69192 35.5544 13.4824C22.3984 22.2729 12.1446 34.7672 6.08964 49.3853C0.0346269 64.0034 -1.54964 80.0887 1.53718 95.6072C4.62399 111.126 12.2433 125.38 23.4315 136.569C34.6197 147.757 48.8743 155.376 64.3928 158.463C79.9113 161.55 95.9966 159.965 110.615 153.91C125.233 147.855 137.727 137.602 146.518 124.446C155.308 111.29 160 95.8225 160 80H80V0Z" fill="url(#paint0_radial_3378_43274)"/>
<path d="M63.2757 106.541C62.6 106.541 62.0182 106.388 61.5303 106.082C61.0454 105.773 60.6727 105.347 60.4121 104.804C60.1515 104.262 60.0212 103.641 60.0212 102.941C60.0212 102.232 60.1545 101.606 60.4212 101.064C60.6879 100.518 61.0636 100.092 61.5485 99.7863C62.0333 99.4802 62.6045 99.3272 63.2621 99.3272C63.7924 99.3272 64.2651 99.4257 64.6803 99.6226C65.0954 99.8166 65.4303 100.089 65.6848 100.441C65.9424 100.792 66.0954 101.203 66.1439 101.673H64.8212C64.7485 101.345 64.5818 101.064 64.3212 100.827C64.0636 100.591 63.7182 100.473 63.2848 100.473C62.9061 100.473 62.5742 100.573 62.2894 100.773C62.0076 100.97 61.7879 101.251 61.6303 101.618C61.4727 101.982 61.3939 102.412 61.3939 102.909C61.3939 103.418 61.4712 103.857 61.6257 104.227C61.7803 104.597 61.9985 104.883 62.2803 105.086C62.5651 105.289 62.9 105.391 63.2848 105.391C63.5424 105.391 63.7757 105.344 63.9848 105.25C64.197 105.153 64.3742 105.015 64.5167 104.836C64.6621 104.657 64.7636 104.442 64.8212 104.191H66.1439C66.0954 104.642 65.9485 105.045 65.703 105.4C65.4576 105.754 65.1288 106.033 64.7167 106.236C64.3076 106.439 63.8273 106.541 63.2757 106.541ZM70.3504 106.541C69.6626 106.541 69.0701 106.394 68.5732 106.1C68.0792 105.803 67.6974 105.386 67.4277 104.85C67.161 104.311 67.0277 103.679 67.0277 102.954C67.0277 102.239 67.161 101.609 67.4277 101.064C67.6974 100.518 68.0732 100.092 68.555 99.7863C69.0398 99.4802 69.6065 99.3272 70.255 99.3272C70.6489 99.3272 71.0307 99.3923 71.4004 99.5226C71.7701 99.6529 72.1019 99.8575 72.3959 100.136C72.6898 100.415 72.9216 100.777 73.0913 101.223C73.261 101.665 73.3459 102.203 73.3459 102.836V103.318H67.7959V102.3H72.0141C72.0141 101.942 71.9413 101.626 71.7959 101.35C71.6504 101.071 71.4459 100.851 71.1822 100.691C70.9216 100.53 70.6156 100.45 70.2641 100.45C69.8822 100.45 69.5489 100.544 69.2641 100.732C68.9822 100.917 68.7641 101.159 68.6095 101.459C68.458 101.756 68.3822 102.079 68.3822 102.427V103.223C68.3822 103.689 68.4641 104.086 68.6277 104.414C68.7944 104.741 69.0262 104.991 69.3232 105.164C69.6201 105.333 69.9671 105.418 70.3641 105.418C70.6216 105.418 70.8565 105.382 71.0686 105.309C71.2807 105.233 71.4641 105.121 71.6186 104.973C71.7732 104.824 71.8913 104.641 71.9732 104.423L73.2595 104.654C73.1565 105.033 72.9716 105.365 72.705 105.65C72.4413 105.932 72.1095 106.151 71.7095 106.309C71.3126 106.464 70.8595 106.541 70.3504 106.541ZM74.5978 106.4V99.4181H75.9569V102.345H76.6115L78.916 99.4181H80.5978L77.8933 102.814L80.6297 106.4H78.9433L76.8387 103.609H75.9569V106.4H74.5978ZM82.3259 109.018C82.1229 109.018 81.9381 109.001 81.7714 108.968C81.6047 108.938 81.4805 108.904 81.3987 108.868L81.7259 107.754C81.9744 107.821 82.1956 107.85 82.3896 107.841C82.5835 107.832 82.7547 107.759 82.9032 107.623C83.0547 107.486 83.1881 107.264 83.3032 106.954L83.4714 106.491L80.9168 99.4181H82.3714L84.1396 104.836H84.2123L85.9805 99.4181H87.4396L84.5623 107.332C84.429 107.695 84.2593 108.003 84.0532 108.254C83.8471 108.509 83.6017 108.7 83.3168 108.827C83.032 108.954 82.7017 109.018 82.3259 109.018ZM93.1927 102.323V103.5H89.4108V102.323H93.1927ZM89.7927 99.4181V106.4H88.4608V99.4181H89.7927ZM94.1427 99.4181V106.4H92.8154V99.4181H94.1427ZM95.023 108.414V105.223H95.5912C95.7367 105.089 95.8594 104.93 95.9594 104.745C96.0624 104.561 96.1488 104.341 96.2185 104.086C96.2912 103.832 96.3518 103.535 96.4003 103.195C96.4488 102.853 96.4912 102.462 96.5276 102.023L96.7457 99.4181H101.491V105.223H102.564V108.414H101.237V106.4H96.3685V108.414H95.023ZM97.0457 105.223H100.164V100.582H97.9639L97.8185 102.023C97.7488 102.756 97.6609 103.392 97.5548 103.932C97.4488 104.468 97.2791 104.898 97.0457 105.223Z" fill="white"/>
<rect x="95.0854" y="3.91479" width="1.46185" height="10.9639" transform="rotate(12 95.0854 3.91479)" fill="white"/>
<rect x="110.3" y="8.69751" width="1.46185" height="10.9639" transform="rotate(24 110.3 8.69751)" fill="white"/>
<rect x="124.186" y="16.5388" width="1.46185" height="10.9639" transform="rotate(36 124.186 16.5388)" fill="white"/>
<rect x="136.14" y="27.0962" width="1.46185" height="10.9639" transform="rotate(48 136.14 27.0962)" fill="white"/>
<rect x="145.637" y="39.9077" width="1.46185" height="10.9639" transform="rotate(60 145.637 39.9077)" fill="white"/>
<rect x="152.263" y="54.4143" width="1.46185" height="10.9639" transform="rotate(72 152.263 54.4143)" fill="white"/>
<rect x="155.729" y="69.9812" width="1.46185" height="10.9639" transform="rotate(84 155.729 69.9812)" fill="white"/>
<g clip-path="url(#clip2_3378_43274)">
<path d="M71.3574 58.9454V89.2H66.7779V63.5249H66.6006L59.362 68.2522V63.8795L66.9108 58.9454H71.3574Z" fill="white"/>
</g>
<g clip-path="url(#clip3_3378_43274)">
<path d="M93.9982 89.6136C92.1466 89.6136 90.4822 89.259 89.005 88.55C87.5375 87.831 86.3656 86.8462 85.4891 85.5954C84.6125 84.3446 84.1447 82.9166 84.0857 81.3113H88.5175C88.6258 82.6113 89.2019 83.6799 90.2459 84.517C91.2898 85.3541 92.5406 85.7727 93.9982 85.7727C95.1603 85.7727 96.1894 85.5068 97.0857 84.975C97.9917 84.4333 98.7008 83.6897 99.2129 82.7443C99.7349 81.7988 99.9959 80.7204 99.9959 79.509C99.9959 78.278 99.73 77.1799 99.1982 76.2147C98.6663 75.2496 97.9326 74.4912 96.997 73.9397C96.0713 73.3882 95.0076 73.1075 93.8061 73.0977C92.8902 73.0977 91.9694 73.2553 91.0436 73.5704C90.1179 73.8856 89.3694 74.2992 88.7982 74.8113L84.6175 74.1909L86.3163 58.9454H102.95V62.8602H90.1129L89.1527 71.325H89.33C89.9209 70.7537 90.7038 70.2761 91.6788 69.892C92.6637 69.5079 93.7175 69.3159 94.8402 69.3159C96.6819 69.3159 98.3216 69.7541 99.7595 70.6306C101.207 71.5071 102.345 72.7037 103.172 74.2204C104.009 75.7272 104.423 77.4606 104.413 79.4204C104.423 81.3803 103.98 83.1284 103.083 84.6647C102.197 86.2011 100.966 87.4125 99.3902 88.2988C97.8243 89.1753 96.0269 89.6136 93.9982 89.6136ZM98.5574 104.945V135.2H93.9778V109.525H93.8006L86.5619 114.252V109.879L94.1108 104.945H98.5574ZM84.154 181.2V177.891L94.3915 167.284C95.4847 166.132 96.3858 165.122 97.0949 164.256C97.8138 163.379 98.3506 162.547 98.7051 161.759C99.0597 160.971 99.2369 160.134 99.2369 159.248C99.2369 158.243 99.0006 157.376 98.5278 156.648C98.0551 155.909 97.41 155.343 96.5926 154.949C95.7752 154.545 94.8544 154.343 93.8301 154.343C92.7468 154.343 91.8013 154.565 90.9938 155.008C90.1862 155.451 89.5657 156.076 89.1324 156.884C88.6991 157.692 88.4824 158.637 88.4824 159.72H84.1244C84.1244 157.879 84.5479 156.269 85.3949 154.89C86.2419 153.511 87.404 152.442 88.8813 151.684C90.3585 150.916 92.0377 150.532 93.9188 150.532C95.8195 150.532 97.4938 150.911 98.9415 151.669C100.399 152.418 101.537 153.442 102.354 154.742C103.171 156.032 103.58 157.49 103.58 159.115C103.58 160.237 103.368 161.336 102.945 162.409C102.531 163.483 101.807 164.679 100.773 165.999C99.7392 167.309 98.3013 168.899 96.4597 170.77L90.4472 177.064V177.285H104.068V181.2H84.154ZM94.0369 227.614C92.0081 227.614 90.196 227.264 88.6006 226.565C87.015 225.865 85.7593 224.895 84.8335 223.654C83.9176 222.404 83.4252 220.956 83.3562 219.311H87.9949C88.054 220.208 88.3544 220.986 88.896 221.645C89.4475 222.295 90.1665 222.798 91.0528 223.152C91.9392 223.507 92.9241 223.684 94.0074 223.684C95.1991 223.684 96.2528 223.477 97.1687 223.064C98.0945 222.65 98.8184 222.074 99.3403 221.335C99.8623 220.587 100.123 219.725 100.123 218.75C100.123 217.736 99.8623 216.844 99.3403 216.076C98.8282 215.298 98.0748 214.687 97.0801 214.244C96.0953 213.801 94.9036 213.579 93.5051 213.579H90.9494V209.857H93.5051C94.6278 209.857 95.6127 209.655 96.4597 209.251C97.3165 208.847 97.9862 208.286 98.4688 207.567C98.9513 206.838 99.1926 205.986 99.1926 205.011C99.1926 204.076 98.9809 203.263 98.5574 202.574C98.1438 201.875 97.5528 201.328 96.7847 200.934C96.0263 200.54 95.1301 200.343 94.096 200.343C93.1112 200.343 92.1903 200.525 91.3335 200.89C90.4866 201.244 89.7972 201.756 89.2653 202.426C88.7335 203.086 88.4479 203.879 88.4085 204.804H83.9915C84.0407 203.17 84.5233 201.732 85.4392 200.491C86.365 199.25 87.5862 198.28 89.1028 197.581C90.6195 196.881 92.3036 196.532 94.1551 196.532C96.0953 196.532 97.7695 196.911 99.1778 197.669C100.596 198.418 101.689 199.417 102.457 200.668C103.235 201.919 103.62 203.288 103.61 204.775C103.62 206.469 103.147 207.907 102.191 209.089C101.246 210.27 99.9854 211.063 98.4097 211.467V211.703C100.419 212.009 101.975 212.806 103.078 214.097C104.191 215.387 104.742 216.987 104.732 218.898C104.742 220.562 104.279 222.054 103.344 223.374C102.418 224.694 101.152 225.733 99.5472 226.491C97.9419 227.239 96.1051 227.614 94.0369 227.614ZM82.6656 267.291V263.598L95.7395 242.945H98.6497V248.382H96.8031L87.452 263.184V263.42H105.371V267.291H82.6656ZM97.0099 273.2V266.168L97.0395 264.484V242.945H101.368V273.2H97.0099ZM93.9982 319.614C92.1466 319.614 90.4822 319.259 89.005 318.55C87.5375 317.831 86.3656 316.846 85.4891 315.595C84.6125 314.345 84.1447 312.917 84.0857 311.311H88.5175C88.6258 312.611 89.2019 313.68 90.2459 314.517C91.2898 315.354 92.5406 315.773 93.9982 315.773C95.1603 315.773 96.1894 315.507 97.0857 314.975C97.9917 314.433 98.7008 313.69 99.2129 312.744C99.7349 311.799 99.9959 310.72 99.9959 309.509C99.9959 308.278 99.73 307.18 99.1982 306.215C98.6663 305.25 97.9326 304.491 96.997 303.94C96.0713 303.388 95.0076 303.108 93.8061 303.098C92.8902 303.098 91.9694 303.255 91.0436 303.57C90.1179 303.886 89.3694 304.299 88.7982 304.811L84.6175 304.191L86.3163 288.945H102.95V292.86H90.1129L89.1527 301.325H89.33C89.9209 300.754 90.7038 300.276 91.6788 299.892C92.6637 299.508 93.7175 299.316 94.8402 299.316C96.6819 299.316 98.3216 299.754 99.7595 300.631C101.207 301.507 102.345 302.704 103.172 304.22C104.009 305.727 104.423 307.461 104.413 309.42C104.423 311.38 103.98 313.128 103.083 314.665C102.197 316.201 100.966 317.412 99.3902 318.299C97.8243 319.175 96.0269 319.614 93.9982 319.614ZM94.2493 365.614C92.9 365.594 91.5705 365.348 90.2607 364.875C88.9607 364.402 87.7788 363.614 86.7152 362.511C85.6516 361.408 84.7997 359.926 84.1595 358.065C83.5292 356.203 83.2141 353.879 83.2141 351.092C83.2141 348.453 83.475 346.109 83.997 344.06C84.5288 342.012 85.2921 340.283 86.2868 338.875C87.2815 337.457 88.483 336.378 89.8913 335.64C91.2997 334.901 92.8804 334.532 94.6334 334.532C96.4357 334.532 98.036 334.886 99.4345 335.595C100.833 336.304 101.966 337.284 102.832 338.535C103.709 339.786 104.265 341.209 104.502 342.804H99.9959C99.6906 341.544 99.0849 340.515 98.1788 339.717C97.2728 338.919 96.091 338.52 94.6334 338.52C92.4175 338.52 90.6891 339.486 89.4482 341.416C88.2171 343.346 87.5966 346.03 87.5868 349.467H87.8084C88.3304 348.61 88.9705 347.881 89.7288 347.281C90.497 346.67 91.3538 346.202 92.2993 345.877C93.2546 345.542 94.2591 345.375 95.3129 345.375C97.066 345.375 98.6516 345.803 100.07 346.66C101.498 347.507 102.635 348.679 103.482 350.176C104.329 351.673 104.753 353.387 104.753 355.317C104.753 357.247 104.314 358.995 103.438 360.561C102.571 362.127 101.35 363.368 99.7743 364.284C98.1985 365.19 96.3569 365.633 94.2493 365.614ZM94.2345 361.773C95.3966 361.773 96.4357 361.487 97.3516 360.916C98.2675 360.345 98.9913 359.576 99.5232 358.611C100.055 357.646 100.321 356.568 100.321 355.376C100.321 354.214 100.06 353.155 99.5379 352.2C99.0258 351.245 98.3167 350.486 97.4107 349.925C96.5144 349.364 95.4902 349.083 94.3379 349.083C93.4614 349.083 92.6489 349.25 91.9004 349.585C91.1618 349.92 90.5118 350.383 89.9504 350.974C89.3891 351.565 88.9459 352.244 88.6209 353.012C88.3057 353.771 88.1482 354.573 88.1482 355.42C88.1482 356.553 88.4091 357.602 88.9311 358.567C89.4629 359.532 90.1868 360.31 91.1027 360.901C92.0285 361.482 93.0724 361.773 94.2345 361.773ZM85.8842 411.2L99.0911 385.082V384.86H83.8161V380.945H103.818V384.993L90.6558 411.2H85.8842ZM93.9908 457.614C91.8733 457.614 90.0021 457.249 88.3771 456.52C86.762 455.792 85.4964 454.787 84.5805 453.507C83.6646 452.226 83.2116 450.769 83.2214 449.134C83.2116 447.854 83.4726 446.677 84.0044 445.603C84.5461 444.52 85.2798 443.619 86.2055 442.9C87.1313 442.171 88.1654 441.708 89.3078 441.511V441.334C87.801 440.97 86.5946 440.162 85.6885 438.911C84.7824 437.661 84.3343 436.223 84.3442 434.598C84.3343 433.051 84.743 431.673 85.5703 430.461C86.4074 429.24 87.5548 428.28 89.0124 427.581C90.4699 426.881 92.1294 426.532 93.9908 426.532C95.8324 426.532 97.4771 426.886 98.9249 427.595C100.382 428.295 101.53 429.255 102.367 430.476C103.204 431.687 103.628 433.061 103.637 434.598C103.628 436.223 103.165 437.661 102.249 438.911C101.333 440.162 100.141 440.97 98.6737 441.334V441.511C99.8063 441.708 100.826 442.171 101.732 442.9C102.648 443.619 103.376 444.52 103.918 445.603C104.47 446.677 104.75 447.854 104.76 449.134C104.75 450.769 104.287 452.226 103.371 453.507C102.456 454.787 101.185 455.792 99.5601 456.52C97.9449 457.249 96.0885 457.614 93.9908 457.614ZM93.9908 453.876C95.2415 453.876 96.3249 453.669 97.2408 453.256C98.1567 452.832 98.8658 452.246 99.368 451.498C99.8703 450.739 100.126 449.853 100.136 448.839C100.126 447.785 99.8506 446.854 99.3089 446.047C98.7771 445.239 98.0533 444.604 97.1374 444.141C96.2214 443.678 95.1726 443.447 93.9908 443.447C92.7991 443.447 91.7404 443.678 90.8146 444.141C89.8889 444.604 89.1601 445.239 88.6283 446.047C88.0964 446.854 87.8355 447.785 87.8453 448.839C87.8355 449.853 88.0768 450.739 88.5692 451.498C89.0714 452.246 89.7855 452.832 90.7112 453.256C91.637 453.669 92.7302 453.876 93.9908 453.876ZM93.9908 439.798C94.9953 439.798 95.8866 439.596 96.6646 439.192C97.4427 438.788 98.0533 438.227 98.4964 437.508C98.9495 436.789 99.1809 435.947 99.1908 434.982C99.1809 434.036 98.9544 433.209 98.5112 432.5C98.0779 431.791 97.4722 431.244 96.6942 430.86C95.9161 430.466 95.015 430.269 93.9908 430.269C92.9468 430.269 92.0309 430.466 91.243 430.86C90.465 431.244 89.8593 431.791 89.426 432.5C88.9927 433.209 88.7809 434.036 88.7908 434.982C88.7809 435.947 88.9976 436.789 89.4408 437.508C89.8839 438.227 90.4946 438.788 91.2726 439.192C92.0605 439.596 92.9665 439.798 93.9908 439.798ZM93.747 472.532C95.0963 472.542 96.4258 472.788 97.7357 473.27C99.0455 473.753 100.227 474.541 101.281 475.634C102.345 476.727 103.192 478.204 103.822 480.066C104.462 481.917 104.787 484.222 104.797 486.979C104.797 489.629 104.531 491.987 103.999 494.056C103.467 496.114 102.704 497.852 101.71 499.27C100.725 500.689 99.5281 501.767 98.1197 502.506C96.7114 503.244 95.1258 503.614 93.3629 503.614C91.5607 503.614 89.9603 503.259 88.5618 502.55C87.1633 501.841 86.0258 500.861 85.1493 499.61C84.2728 498.35 83.7262 496.902 83.5095 495.267H88.0152C88.3107 496.567 88.9114 497.621 89.8175 498.428C90.7334 499.226 91.9152 499.625 93.3629 499.625C95.5788 499.625 97.3072 498.66 98.5482 496.729C99.7891 494.789 100.414 492.081 100.424 488.604H100.188C99.6758 489.451 99.0357 490.18 98.2675 490.791C97.5091 491.401 96.6572 491.874 95.7118 492.209C94.7663 492.544 93.7569 492.711 92.6834 492.711C90.9402 492.711 89.3546 492.283 87.9266 491.426C86.4985 490.569 85.361 489.392 84.5141 487.895C83.6671 486.398 83.2436 484.69 83.2436 482.769C83.2436 480.859 83.6769 479.125 84.5436 477.569C85.4201 476.013 86.6413 474.782 88.2072 473.876C89.783 472.96 91.6296 472.512 93.747 472.532ZM93.7618 476.373C92.6095 476.373 91.5705 476.658 90.6447 477.229C89.7288 477.791 89.005 478.554 88.4732 479.519C87.9413 480.475 87.6754 481.538 87.6754 482.71C87.6754 483.882 87.9315 484.946 88.4436 485.901C88.9656 486.847 89.6747 487.6 90.5709 488.161C91.4769 488.713 92.511 488.989 93.6732 488.989C94.5398 488.989 95.3474 488.821 96.0959 488.486C96.8444 488.151 97.4993 487.689 98.0607 487.098C98.622 486.497 99.0603 485.817 99.3754 485.059C99.6906 484.301 99.8482 483.503 99.8482 482.666C99.8482 481.553 99.5822 480.519 99.0504 479.564C98.5285 478.608 97.8095 477.84 96.8936 477.259C95.9777 476.668 94.9338 476.373 93.7618 476.373ZM94.0166 549.702C91.6825 549.692 89.6882 549.077 88.0337 547.856C86.3791 546.634 85.1136 544.857 84.2371 542.523C83.3606 540.189 82.9223 537.377 82.9223 534.087C82.9223 530.808 83.3606 528.006 84.2371 525.682C85.1234 523.358 86.3939 521.585 88.0484 520.364C89.7128 519.142 91.7022 518.532 94.0166 518.532C96.331 518.532 98.3155 519.147 99.97 520.378C101.625 521.6 102.89 523.372 103.767 525.697C104.653 528.011 105.096 530.808 105.096 534.087C105.096 537.387 104.658 540.203 103.781 542.537C102.905 544.862 101.639 546.639 99.9848 547.87C98.3303 549.092 96.3409 549.702 94.0166 549.702ZM94.0166 545.758C96.0651 545.758 97.6655 544.758 98.8178 542.759C99.9799 540.76 100.561 537.869 100.561 534.087C100.561 531.576 100.295 529.454 99.7632 527.72C99.2412 525.977 98.4878 524.658 97.503 523.761C96.528 522.855 95.3659 522.402 94.0166 522.402C91.978 522.402 90.3776 523.407 89.2155 525.416C88.0534 527.425 87.4674 530.315 87.4575 534.087C87.4575 536.609 87.7185 538.741 88.2405 540.484C88.7723 542.217 89.5257 543.532 90.5007 544.428C91.4757 545.315 92.6477 545.758 94.0166 545.758Z" fill="white"/>
</g>
</g>
<defs>
<clipPath id="bgblur_1_3378_43274_clip_path" transform="translate(9.6 9.6)"><path d="M80 0C64.1775 -1.88681e-07 48.7103 4.69192 35.5544 13.4824C22.3984 22.2729 12.1446 34.7672 6.08964 49.3853C0.0346269 64.0034 -1.54964 80.0887 1.53718 95.6072C4.62399 111.126 12.2433 125.38 23.4315 136.569C34.6197 147.757 48.8743 155.376 64.3928 158.463C79.9113 161.55 95.9966 159.965 110.615 153.91C125.233 147.855 137.727 137.602 146.518 124.446C155.308 111.29 160 95.8225 160 80H80V0Z"/>
</clipPath><radialGradient id="paint0_radial_3378_43274" cx="0" cy="0" r="1" gradientUnits="userSpaceOnUse" gradientTransform="translate(80 80) rotate(90) scale(80)">
<stop stop-color="white" stop-opacity="0.25"/>
<stop offset="1" stop-color="white" stop-opacity="0.02"/>
</radialGradient>
<clipPath id="clip0_3378_43274">
<rect width="160" height="160" fill="white"/>
</clipPath>
<clipPath id="clip2_3378_43274">
<rect width="27.2" height="45.6" fill="white" transform="translate(52.8 51.2)"/>
</clipPath>
<clipPath id="clip3_3378_43274">
<rect width="27.2" height="45.6" fill="white" transform="translate(80 51.2)"/>
</clipPath>
</defs>
</svg>