<svg width="160" height="160" viewBox="0 0 160 160" fill="none" xmlns="http://www.w3.org/2000/svg">
<path d="M22.4004 67.1002C22.4004 67.1002 27.9004 75.9001 79.6004 75.9001C131.3 75.9001 136.8 67.1001 136.8 67.1001V148.5C136.8 148.5 136.8 159.5 79.6004 159.5C22.4004 159.5 22.4004 148.5 22.4004 148.5V67.1002Z" fill="url(#paint0_linear_3378_43300)"/>
<path d="M79.9964 138.025L95.4152 122.606C96.0386 121.983 96.0386 120.944 95.4152 120.32L91.6332 116.538C91.0098 115.915 89.9708 115.915 89.3474 116.538L83.155 122.648V100.621C83.155 99.7065 82.4069 99 81.5341 99H76.1313C75.217 99 74.5105 99.7481 74.5105 100.621V122.648L68.318 116.455C67.6946 115.832 66.6556 115.832 66.0322 116.455L62.2503 120.237C61.6269 120.861 61.6269 121.9 62.2503 122.523L77.669 137.942C78.334 138.648 79.3314 138.648 79.9964 138.025Z" fill="url(#paint1_linear_3378_43300)"/>
<ellipse cx="79.6004" cy="66.0001" rx="57.2" ry="9.9" fill="url(#paint2_linear_3378_43300)"/>
<circle cx="79.5996" cy="33" r="33" fill="#9A9761"/>
<path d="M81.8332 47.9828V51.1988H76.7886V48.109C74.4554 47.7306 72.0592 46.8478 70.1675 45.7758C69.5369 45.5236 69.2847 44.7669 69.2847 44.1363V43.8841L70.6719 41.2987L70.9242 41.1726C71.0503 41.0464 71.5548 40.7942 72.0592 40.7942H72.3745L72.6268 41.0464L72.879 41.1726C74.5185 42.0554 76.4733 43.0643 78.7434 43.0643C80.3829 43.0643 83.0944 42.8121 83.2205 39.9744C83.2205 38.2088 82.0855 37.7044 78.365 36.254C72.879 34.2362 69.4108 32.4075 69.4108 26.7953C69.4108 22.3182 72.1223 19.2283 76.7255 18.3455V15.0034H81.8332V18.2194C83.8511 18.4716 85.6798 19.1022 87.3193 20.2372C87.5715 20.3634 88.076 20.6156 88.2021 21.1201C88.3282 21.6245 88.3282 22.129 87.9499 22.6335L87.0671 24.5252C86.8148 25.2819 86.1843 25.5341 85.6798 25.6602C85.3014 25.7864 84.797 25.6602 84.4186 25.408C82.4638 24.2099 80.7613 23.5793 79.2479 23.5793C77.4822 23.5793 75.5274 23.9577 75.5274 26.4169C75.5274 28.3087 76.6625 28.7501 79.7523 30.0113L80.509 30.2635C85.3645 31.903 89.4633 33.7317 89.3372 38.9655C89.211 43.7579 86.5626 46.9739 81.8332 47.9828Z" fill="white"/>
<defs>
<linearGradient id="paint0_linear_3378_43300" x1="79.6004" y1="66.0001" x2="79.6004" y2="154.825" gradientUnits="userSpaceOnUse">
<stop stop-color="white" stop-opacity="0.25"/>
<stop offset="1" stop-color="white" stop-opacity="0.02"/>
</linearGradient>
<linearGradient id="paint1_linear_3378_43300" x1="78.8327" y1="99" x2="78.8327" y2="164.567" gradientUnits="userSpaceOnUse">
<stop stop-color="#589050"/>
<stop offset="1" stop-color="white" stop-opacity="0.02"/>
</linearGradient>
<linearGradient id="paint2_linear_3378_43300" x1="79.6004" y1="56.1001" x2="79.6004" y2="74.9101" gradientUnits="userSpaceOnUse">
<stop stop-color="white" stop-opacity="0.25"/>
<stop offset="1" stop-color="white" stop-opacity="0.02"/>
</linearGradient>
</defs>
</svg>