<svg width="160" height="160" viewBox="0 0 160 160" fill="none" xmlns="http://www.w3.org/2000/svg">
<foreignObject x="38.1868" y="-18.8444" width="155.058" height="182.933"><div xmlns="http://www.w3.org/1999/xhtml" style="backdrop-filter:blur(17.42px);clip-path:url(#bgblur_0_3378_43310_clip_path);height:100%;width:100%"></div></foreignObject><path data-figma-bg-blur-radius="34.8444" d="M73.0312 22.9689C73.0312 19.1201 76.1513 16 80.0001 16H142.72L150.996 23.7958L158.4 30.771V122.276C158.4 126.124 155.28 129.244 151.431 129.244H80.0001C76.1513 129.244 73.0312 126.124 73.0312 122.276V22.9689Z" fill="url(#paint0_linear_3378_43310)"/>
<path d="M87.7328 84.0013C87.1917 84.0013 86.7264 83.8099 86.337 83.4272C85.9477 83.0378 85.753 82.5693 85.753 82.0215C85.753 81.4804 85.9477 81.0184 86.337 80.6357C86.7264 80.2463 87.1917 80.0516 87.7328 80.0516C88.2739 80.0516 88.7392 80.2463 89.1286 80.6357C89.5179 81.0184 89.7126 81.4804 89.7126 82.0215C89.7126 82.3845 89.6202 82.7177 89.4354 83.0213C89.2572 83.3183 89.0197 83.5559 88.7227 83.734C88.4257 83.9122 88.0958 84.0013 87.7328 84.0013ZM96.0794 74.7854V83.8132H93.1196V63.5401H96.0398V71.0831H96.2279C96.5843 70.2648 97.1287 69.6148 97.8613 69.133C98.5938 68.6513 99.5507 68.4104 100.732 68.4104C101.775 68.4104 102.685 68.6249 103.464 69.0538C104.249 69.4828 104.857 70.1229 105.285 70.9742C105.721 71.819 105.939 72.8748 105.939 74.1419V83.8132H102.979V74.4983C102.979 73.383 102.692 72.5185 102.118 71.9047C101.544 71.2844 100.745 70.9742 99.7223 70.9742C99.0227 70.9742 98.3958 71.1227 97.8415 71.4197C97.2937 71.7167 96.8615 72.1522 96.5447 72.7264C96.2345 73.2939 96.0794 73.9802 96.0794 74.7854ZM116.429 68.6084V70.9841H108.123V68.6084H116.429ZM110.351 64.9656H113.31V79.3488C113.31 79.9229 113.396 80.3552 113.568 80.6456C113.739 80.9293 113.96 81.124 114.231 81.2296C114.508 81.3286 114.808 81.3781 115.132 81.3781C115.369 81.3781 115.577 81.3616 115.755 81.3286C115.934 81.2956 116.072 81.2692 116.171 81.2494L116.706 83.6944C116.534 83.7604 116.29 83.8264 115.973 83.8924C115.656 83.965 115.261 84.0046 114.785 84.0112C114.007 84.0244 113.281 83.8858 112.608 83.5955C111.934 83.3051 111.39 82.8563 110.974 82.2492C110.558 81.6421 110.351 80.8798 110.351 79.9625V64.9656ZM119.145 83.8132V68.6084H121.986V71.0831H122.174C122.491 70.245 123.009 69.5917 123.728 69.1231C124.448 68.648 125.309 68.4104 126.312 68.4104C127.328 68.4104 128.18 68.648 128.866 69.1231C129.559 69.5983 130.07 70.2516 130.4 71.0831H130.559C130.922 70.2714 131.499 69.6247 132.291 69.1429C133.083 68.6546 134.027 68.4104 135.122 68.4104C136.501 68.4104 137.627 68.8427 138.498 69.7072C139.375 70.5717 139.814 71.8751 139.814 73.6173V83.8132H136.854V73.8944C136.854 72.8649 136.574 72.1192 136.013 71.6573C135.452 71.1953 134.782 70.9643 134.004 70.9643C133.04 70.9643 132.291 71.2613 131.756 71.8553C131.222 72.4426 130.955 73.1982 130.955 74.1221V83.8132H128.005V73.7064C128.005 72.8814 127.747 72.2182 127.233 71.7167C126.718 71.2151 126.048 70.9643 125.223 70.9643C124.662 70.9643 124.144 71.1128 123.669 71.4098C123.2 71.7002 122.821 72.106 122.531 72.6274C122.247 73.1487 122.105 73.7526 122.105 74.4389V83.8132H119.145ZM146.184 63.5401V83.8132H143.224V63.5401H146.184Z" fill="white"/>
<path d="M158.4 30.8089L142.72 16V27.3244C142.72 29.2488 144.28 30.8089 146.205 30.8089H158.4Z" fill="url(#paint1_linear_3378_43310)"/>
<foreignObject x="-33.2444" y="-4.03537" width="155.058" height="182.933"><div xmlns="http://www.w3.org/1999/xhtml" style="backdrop-filter:blur(17.42px);clip-path:url(#bgblur_1_3378_43310_clip_path);height:100%;width:100%"></div></foreignObject><path data-figma-bg-blur-radius="34.8444" d="M1.6001 37.778C1.6001 33.9292 4.72018 30.8091 8.56899 30.8091H71.289L79.5645 38.6049L86.969 45.5801V137.085C86.969 140.933 83.8489 144.054 80.0001 144.054H8.56898C4.72017 144.054 1.6001 140.933 1.6001 137.085V37.778Z" fill="url(#paint2_linear_3378_43310)"/>
<path d="M23.0765 98.0726C22.5353 98.0726 22.0701 97.8813 21.6807 97.4985C21.2914 97.1091 21.0967 96.6406 21.0967 96.0929C21.0967 95.5517 21.2914 95.0898 21.6807 94.707C22.0701 94.3176 22.5353 94.123 23.0765 94.123C23.6176 94.123 24.0829 94.3176 24.4722 94.707C24.8616 95.0898 25.0563 95.5517 25.0563 96.0929C25.0563 96.4558 24.9639 96.7891 24.7791 97.0926C24.6009 97.3896 24.3633 97.6272 24.0664 97.8054C23.7694 97.9836 23.4394 98.0726 23.0765 98.0726Z" fill="white"/>
<path d="M28.4633 103.586V82.6797H31.3538V85.1446H31.6013C31.7729 84.8278 32.0203 84.4615 32.3437 84.0458C32.6671 83.63 33.1158 83.2671 33.69 82.9569C34.2641 82.6401 35.023 82.4817 35.9667 82.4817C37.1942 82.4817 38.2897 82.7919 39.2532 83.4122C40.2167 84.0326 40.9723 84.9268 41.5201 86.0949C42.0744 87.263 42.3516 88.6686 42.3516 90.3118C42.3516 91.9551 42.0777 93.364 41.53 94.5387C40.9822 95.7068 40.2299 96.6076 39.273 97.2411C38.3161 97.8681 37.2239 98.1815 35.9964 98.1815C35.0725 98.1815 34.3169 98.0265 33.7296 97.7163C33.1488 97.4061 32.6935 97.0432 32.3635 96.6274C32.0335 96.2116 31.7795 95.8421 31.6013 95.5187H31.4231V103.586H28.4633ZM31.3637 90.2821C31.3637 91.3512 31.5188 92.2883 31.829 93.0935C32.1391 93.8986 32.5879 94.5288 33.1752 94.9842C33.7626 95.4329 34.4819 95.6573 35.3332 95.6573C36.2175 95.6573 36.9566 95.423 37.5506 94.9545C38.1445 94.4793 38.5933 93.8359 38.8968 93.0242C39.207 92.2124 39.3621 91.2984 39.3621 90.2821C39.3621 89.279 39.2103 88.3782 38.9067 87.5797C38.6098 86.7812 38.161 86.151 37.5605 85.689C36.9665 85.2271 36.2241 84.9961 35.3332 84.9961C34.4753 84.9961 33.7494 85.2172 33.1554 85.6593C32.5681 86.1015 32.1226 86.7185 31.8191 87.5104C31.5155 88.3023 31.3637 89.2263 31.3637 90.2821Z" fill="white"/>
<path d="M50.8022 98.1815C49.5747 98.1815 48.4792 97.8681 47.5157 97.2411C46.5588 96.6076 45.8065 95.7068 45.2587 94.5387C44.7176 93.364 44.447 91.9551 44.447 90.3118C44.447 88.6686 44.7209 87.263 45.2686 86.0949C45.823 84.9268 46.5819 84.0326 47.5454 83.4122C48.5089 82.7919 49.6011 82.4817 50.822 82.4817C51.7657 82.4817 52.5246 82.6401 53.0987 82.9569C53.6795 83.2671 54.1282 83.63 54.445 84.0458C54.7684 84.4615 55.0191 84.8278 55.1973 85.1446H55.3755V77.6114H58.3353V97.8846H55.4448V95.5187H55.1973C55.0191 95.8421 54.7618 96.2116 54.4252 96.6274C54.0952 97.0432 53.6399 97.4061 53.0591 97.7163C52.4784 98.0265 51.7261 98.1815 50.8022 98.1815ZM51.4555 95.6573C52.3068 95.6573 53.0261 95.4329 53.6135 94.9842C54.2074 94.5288 54.6562 93.8986 54.9597 93.0935C55.2699 92.2883 55.425 91.3512 55.425 90.2821C55.425 89.2263 55.2732 88.3023 54.9696 87.5104C54.6661 86.7185 54.2206 86.1015 53.6333 85.6593C53.0459 85.2172 52.32 84.9961 51.4555 84.9961C50.5646 84.9961 49.8222 85.2271 49.2282 85.689C48.6343 86.151 48.1855 86.7812 47.882 87.5797C47.585 88.3782 47.4365 89.279 47.4365 90.2821C47.4365 91.2984 47.5883 92.2124 47.8919 93.0242C48.1954 93.8359 48.6442 94.4793 49.2381 94.9545C49.8387 95.423 50.5778 95.6573 51.4555 95.6573Z" fill="white"/>
<path d="M69.2383 82.6797V85.0555H60.646V82.6797H69.2383ZM63.002 97.8846V80.9177C63.002 79.9674 63.2099 79.1788 63.6256 78.5518C64.0414 77.9183 64.5924 77.4465 65.2787 77.1363C65.9651 76.8195 66.7108 76.6611 67.5159 76.6611C68.1099 76.6611 68.618 76.7106 69.0404 76.8096C69.4627 76.902 69.7762 76.9878 69.9808 77.067L69.2878 79.4625C69.1492 79.423 68.9711 79.3768 68.7533 79.324C68.5355 79.2646 68.2715 79.2349 67.9614 79.2349C67.242 79.2349 66.7273 79.4131 66.4171 79.7694C66.1136 80.1258 65.9618 80.6405 65.9618 81.3137V97.8846H63.002Z" fill="white"/>
<path d="M86.9691 45.618L71.2891 30.8091V42.1335C71.2891 44.0579 72.8491 45.618 74.7735 45.618H86.9691Z" fill="url(#paint3_linear_3378_43310)"/>
<defs>
<clipPath id="bgblur_0_3378_43310_clip_path" transform="translate(-38.1868 18.8444)"><path d="M73.0312 22.9689C73.0312 19.1201 76.1513 16 80.0001 16H142.72L150.996 23.7958L158.4 30.771V122.276C158.4 126.124 155.28 129.244 151.431 129.244H80.0001C76.1513 129.244 73.0312 126.124 73.0312 122.276V22.9689Z"/>
</clipPath><clipPath id="bgblur_1_3378_43310_clip_path" transform="translate(33.2444 4.03537)"><path d="M1.6001 37.778C1.6001 33.9292 4.72018 30.8091 8.56899 30.8091H71.289L79.5645 38.6049L86.969 45.5801V137.085C86.969 140.933 83.8489 144.054 80.0001 144.054H8.56898C4.72017 144.054 1.6001 140.933 1.6001 137.085V37.778Z"/>
</clipPath><linearGradient id="paint0_linear_3378_43310" x1="115.716" y1="16" x2="115.716" y2="123.582" gradientUnits="userSpaceOnUse">
<stop stop-color="#589050"/>
<stop offset="1" stop-color="white" stop-opacity="0.02"/>
</linearGradient>
<linearGradient id="paint1_linear_3378_43310" x1="150.56" y1="16" x2="150.56" y2="30.896" gradientUnits="userSpaceOnUse">
<stop stop-color="white" stop-opacity="0.4"/>
<stop offset="1" stop-color="white" stop-opacity="0.2"/>
</linearGradient>
<linearGradient id="paint2_linear_3378_43310" x1="44.2845" y1="30.8091" x2="44.2845" y2="138.391" gradientUnits="userSpaceOnUse">
<stop stop-color="#D35B5D"/>
<stop offset="1" stop-color="white" stop-opacity="0.02"/>
</linearGradient>
<linearGradient id="paint3_linear_3378_43310" x1="79.1291" y1="30.8091" x2="79.1291" y2="45.7051" gradientUnits="userSpaceOnUse">
<stop stop-color="white" stop-opacity="0.4"/>
<stop offset="1" stop-color="white" stop-opacity="0.2"/>
</linearGradient>
</defs>
</svg>
